<?xml version="1.0" encoding="UTF-8"?>
<svg id="Layer_1" data-name="Layer 1" xmlns="http://www.w3.org/2000/svg" viewBox="0 0 463 401.5">
  <defs>
    <style>
      .cls-1 {
        fill: #29314b;
      }
    </style>
  </defs>
  <g>
    <path d="M392.95,21.16c-.2.26-3.91,4.51-9.24,9.65-9.86,9.5-26.86,23.11-44.53,29.75-.2.08-.41.18-1.02.42-.72.28-7.06.42-7.06.42-.04,0-.09,0-.13,0-26.1,0-43.79,0-43.79,0h-37.71l-25.88,23.24.02,176.38,91.58-103.69-18.28-33.6h12.69l18.31-22.56s21.48-.82,40.35-17.6c13.84-12.31,20.09-26.11,22.98-37.85,1.03-4.17,1.55-8.08,1.83-11.55.48-5.86.12-10.47-.12-13.02ZM253.94,183.37l-.12-31.39h27.33l-27.21,31.39ZM253.9,117.55l-.08-16.7h27.44l.08,16.7h-27.45Z"/>
    <path d="M199.81,163.98l13.18-15.38v-63.95l-25.68-23.24h-79.16c-3.69,0-22.17-7.62-34.3-16.47-11.79-8.6-21.73-18.36-25.64-23.13-.27,3.51-.94,13.56,2.18,25.47,3.49,13.3,12.85,30.8,30.54,42.41,15.19,9.98,26.4,10.51,30.04,11.29,2.3.49,17.8.72,31.97.61,12.89-.01,26.16,0,26.16,0v22.15h-25.53l-18.36,33.56,91.88,104-.06-57.22-36.47-40.12h19.25Z"/>
  </g>
  <g>
    <path d="M196.89,358.96c0-.42.01-1.07.04-1.94.03-.87.13-5.72.13-6.08s-.01-.9-.04-1.62c-.03-.72-.07-1.77-.13-3.15-.06-.06-.15-.09-.27-.09.06,0,.1-.01.13-.05.03-.03.07-.05.13-.05,0-.48-.02-.93-.04-1.35-.03-.42-.04-.84-.04-1.26-.47-.24-1.03-.35-1.68-.32-.65.03-1.24.05-1.77.05l-.09.18c-.12-.12-.44-.19-.97-.23-.53-.03-1.11-.06-1.73-.09-.62-.03-1.23-.05-1.82-.05h-1.24c-.24.12-.41.18-.53.18s-.44.06-.97.18c0,1.62.01,3.26.04,4.91.03,1.65.04,3.32.04,5-.24.12-.39.21-.44.27-.83,0-1.65.01-2.48.05s-1.62.01-2.39-.05c-.06-1.44-.06-3.03,0-4.78.06-1.74-.34-14-.31-16.76.03-2.76-.03-20.65,0-23.03.03-2.37-.34-9.17.08-9.14.41.03,1.96,0,2.4.04.44.03.84.03,1.2,0,.35-.03.59-.1.71-.23.06.06.25.11.58.14.32.03.54.08.66.14v4.69c.06-.06.12-.09.18-.09.12,0,.18.06.18.18,0,.06-.09.09-.27.09v2.61c.18,0,.32.03.44.09,1-.06,1.99-.09,2.97-.09s1.96-.03,2.97-.09c.12,0,.22.01.31.05.09.03.19.08.31.14.71-.06,1.21-.1,1.51-.14.29-.03.94-.08,1.95-.14.06-.06.1-.12.13-.18.03-.06.07-.12.13-.18-.12-2.1-.18-4.24-.18-6.4v-6.4c-.12-.3-.19-.63-.22-.99-.03-.36-.04-.69-.04-.99-.24,0-.39.03-.44.09-.06.06-.21.03-.44-.09v-.09c.18-.06.38-.09.62-.09,0-.36-.12-.54-.36-.54-.06-.24-.18-.48-.35-.72-.06.06-.12.09-.18.09h-.27c.06-.06.15-.09.27-.09-.77-.96-1.71-1.44-2.83-1.44-.18-.3-7.4-.53-9.79-.5-2.39.03-4.83.05-7.31.05-.47.18-.98.23-1.51.14-.53-.09-1.03.08-1.51.5-.47.12-.9.41-1.28.86-.39.45-.81.83-1.29,1.13-.06.36-.21.6-.44.72.06.06.09.15.09.27-.06,0-.1.02-.13.05-.03.03-.07.05-.13.05-.06.3-.21.63-.44.99-.24.36.07,34.7.04,38.13-.03,3.42.07,28.83.13,29.34.06.51.18.96.35,1.35s.44.62.8.68c-.06,0-.09.03-.09.09.59.6,1.18,1.05,1.77,1.35.18,0,.43.02.75.05.32.03.54.14.66.32.47-.06.94-.09,1.42-.09s8.49-.03,11.12-.09c2.63-.06,5.27-.15,7.93-.27.29-.18.62-.37.97-.59.35-.21.68-.41.97-.59.24-.36.56-.86.97-1.49.41-.63.53-1.13.35-1.49v-1.08Z"/>
    <path d="M230.47,288.39c-.3,0-.62.02-.97.05-.35.03-.71.08-1.06.14l.18-.18c-.59,0-1.15.02-1.68.05-.53.03-1.06.05-1.59.05v.27c-.06,0-.09-.09-.09-.27-.36,0-.62.03-.8.09l.18-.18h-2.75c-.89,0-1.8.03-2.75.09-.06,0-.15.06-.27.18l-.18-.18h-.35c-.18.72-.28,1.44-.31,2.16-.03.72.01,25.03.13,25.87.12.84.12,1.59,0,2.25-.89-.12-1.61-.15-2.17-.09-.56.06-1.26.09-2.08.09,0,.3.03.54.09.72-.18-.24-.27-.48-.27-.72l-1.24-.18v.27c-.06.06-.12.09-.18.09,0,.18.03.3.09.36,0,.06.03.09.09.09.06-.12.09-.24.09-.36l.27.27c-.12.12-.27.18-.44.18-.06-.06-.09-.12-.09-.18s-.03-.27-.09-.63h-.27v-3.06c.35-.54.18-23.4.18-25.15.12-.42.15-.71.09-.86-.06-.15-.12-.44-.18-.86-.3,0-.62.02-.97.05-.36.03-.71.08-1.06.14l.18-.18c-.59,0-1.15.02-1.68.05-.53.03-1.06.05-1.59.05v.27c-.06,0-.09-.09-.09-.27-.35,0-.62.03-.8.09l.18-.18h-2.74c-.89,0-1.8.03-2.75.09-.06,0-.15.06-.27.18l-.18-.18h-.36c-.18.72-.28,1.44-.31,2.16-.03.72.09,24.95.18,25.64.09.69.1,1.37.04,2.03-.29-.12-.52-.15-.67-.09-.15.06-.43.12-.84.18,0,.3.02.63.04.99.03.36.07.72.13,1.08l-.18-.18c0,.6.02,1.17.04,1.71.03.54.04,1.08.04,1.62h.27c0,.06-.09.09-.27.09,0,.36.03.63.09.81l-.18-.18v2.79c0,.9.03,1.83.09,2.79,0,.06.06.15.18.27l-.18.18v.36c.41.18.86.27,1.33.27,0,.3.02.57.04.81.03.24-.03,2.01,0,2.79.03.78.12,26.9.09,26.99-.03.09-.04.2-.04.32h.35c.12,0,.24.06.35.18-.24.12-.4.2-.49.23-.09.03-.22.17-.4.41l.27.72.27-.18.27.18.09-.09c.12.36.43.59.93.68.5.09,1.05.12,1.64.09.59-.03,1.18-.06,1.77-.09.59-.03,1.03.05,1.33.23h2.75c0-.12-.01-.2-.04-.23-.03-.03-.04-.07-.04-.14.12.06.21.15.27.27,1.36-.06,2.14-.09,2.35-.09s.37-.03.49-.09c-.12,0-.21-.03-.27-.09v-.09h.27c.12-.3.13-.6.04-.9-.09-.3-.19-.57-.31-.81h.18v-1.53c-.06-.06-.12-.09-.18-.09v-.18h.18c0-1.56-.02-2.78-.04-3.65-.03-.87-.04-1.56-.04-2.07v-1.17c0-.27.03-2.36.09-2.66-.12-.24-.18-.57-.18-.99-.06-.06-.15-.09-.27-.09.06-.06.09-.15.09-.27l.27.18s.01-5.14.04-6.4c.03-1.26-.01-2.49-.13-3.69.06-.06.12-.09.18-.09v-.86c0-.27.24-6.02.18-6.08h.18v-1.44c.12,0,.21-.03.27-.09.24.12,4.96.12,5.67,0v.68c0,.21.09,4.7.09,6.45h.27c0,.06-.09.12-.27.18v2.21c0,.21.01.42.04.63.03.21.04.47.04.77h.18c-.12.12-.18.21-.18.27v.81h.18c-.12.12-.21.3-.27.54,0,1.26.01,2.54.04,3.83.03,1.29.04,15.82.04,15.82l.27-.18.27.18.09-.09c.12.36.43.59.93.68.5.09,1.05.12,1.64.09.59-.03,1.18-.06,1.77-.09.59-.03,1.03.05,1.33.23h2.75c0-.12-.02-.19-.04-.23-.03-.03-.04-.08-.04-.14.12.06.21.15.27.27,1.36-.06,2.14-.09,2.35-.09s.37-.03.49-.09c-.12,0-.21-.03-.27-.09v-.09h.27c.12-.3.13-.6.04-.9-.09-.3-.19-.57-.31-.81h.18v-1.53c-.06-.06-.12-.09-.18-.09v-.18h.18c0-1.56-.02-2.78-.04-3.65-.03-.87-.04-1.56-.04-2.07v-1.17c0-.27.03-2.36.09-2.66-.12-.24-.18-.57-.18-.99-.06-.06-.15-.09-.27-.09.06-.06.09-.15.09-.27l.27.18.09-2.7c-.06-1.2-.07-2.43-.04-3.69.03-1.26.31-19.38.31-20.28v-2.7c-.06,0-.1-.01-.13-.05-.03-.03-.1-.05-.22-.05,0-.06-.03-.15-.09-.27h.44c-.12-.78-.16-1.55-.13-2.3.03-.75-.02-20.55.04-22.26s.09-3.44.09-5.18c.12-.42.15-.71.09-.86-.06-.15-.12-.44-.18-.86Z"/>
    <path d="M315.59,327.68c-.06-.66-.09-1.32-.09-1.98v-1.98c-.12-.24-.19-.37-.22-.41-.03-.03-.04-.1-.04-.23l.18.18v-5.95c-.18-.3-.24-.74-.18-1.31.06-.57.09-1.01.09-1.31h-.44c0-.06.15-.09.44-.09v-7.3l-.09-.09v-.27c.06-1.56.09-3.08.09-4.55s.03-2.96.09-4.46c-.06-.48-.07-.98-.04-1.49.03-.51-.43-2.3-.31-2.84,0-.48-.09-.93-.27-1.35-.18-.42-.32-.87-.44-1.35-.06,0-.1-.01-.13-.05-.03-.03-.1-.05-.22-.05.06-.06.1-.09.13-.09.03,0,.07-.03.13-.09-.3-.3-.64-.59-1.02-.86-.39-.27-.78-.53-1.2-.77-1.65-.12-3.31-.16-4.96-.14-1.66.03-3.31.05-4.96.05-.18-.12-.35-.12-.53,0-1.77,0-3.22-.01-4.34-.05-1.12-.03-2.04-.05-2.75-.05s-1.3-.01-1.77-.05c-.47-.03-1.01-.05-1.59-.05,0,.06.01.11.04.14.03.03.04.08.04.14h-.53v-.18c.12,0,.12-.01,0-.05-.12-.03-3.14.69-3.23.72-.09.03-.34.17-.75.41-.06.06-.09.14-.09.23s-.03.2-.09.32c-.41-.12-.78.18-1.11.9-.33.72-.55,1.2-.67,1.44,0,.3-.01.57-.04.81-.03.24-.04.48-.04.72-.12.36-.18.72-.18,1.08v9.01c0,.54.22,28.51.31,31.82.09,3.31.13,6.61.13,9.91.06,1.08.09,1.94.09,2.57v3.56h.18l-.18.18v5.41c.06.18.1.38.13.59.03.21.13.38.31.5-.06,0-.12.03-.18.09.18.48.41.96.71,1.44.3.48.56.96.8,1.44.06-.06.18-.09.35-.09v.45c.3.3.63.59,1.02.86.38.27.78.44,1.2.5v.27c.35.06.6.1.75.14.15.03.46.14.93.32.41.06,18.4,0,19.76-.36,1.36-.36,2.54-1.23,3.54-2.61h.18c.12-.42.25-.83.4-1.22.15-.39.28-.83.4-1.31.06-1.5.1-2.66.13-3.47.03-.81.06-1.47.09-1.98.03-.51.04-.92.04-1.22v-1.08h-.44c0-.06.15-.09.44-.09-.06-.18-.09-.45-.09-.81-.12,0-.18.03-.18.09,0-.06-.01-.09-.04-.09-.03,0-.04-.03-.04-.09h.35v-.5c0-.09-.03-.32-.09-.68h.09c-.06-1.38-.07-2.75-.04-4.1.03-1.35.04-2.72.04-4.1-.24-.3-.3-.54-.18-.72.06.06.09.18.09.36,0-.3.01-.6.04-.9.03-.3.04-.6.04-.9h-.09l.09-.09v-8.92h-.18c0-.12.03-.19.09-.23.06-.03.03-.19-.09-.5.06,0,.09-.01.09-.05,0-.03.03-.05.09-.05-.06-.18-.27-.33-.62-.45h.62c-.06-.12-.09-.27-.09-.45h-.18c0-.06.09-.12.27-.18ZM303.55,351.39c0,.18-.01.38-.04.59-.03.21-.04.41-.04.59-.24.12-.71.36-.71.36-.06.12-5.91-.18-6.2-.36,0-2.4-.02-4.79-.04-7.17-.03-2.37-.22-29.7-.22-30.6s-.03-1.8-.09-2.7c.12-1.98.15-3.98.09-5.99-.06-2.01-.09-3.98-.09-5.9.12-.12.5-.19,1.15-.23.65-.03,1.36-.03,2.13,0,.77.03,1.51.06,2.21.09.71.03,1.15.05,1.33.05.06.06.09.12.09.18s.03.24.09.54c.12,0,.24.03.35.09v.09h-.35c-.12,2.1-.12,4.18,0,6.22h.18c-.06,0-.09.01-.09.05s-.03.05-.09.05c0,.9.01,1.8.04,2.7.03.9-.04,5.62-.04,6.4s.09,12.29.09,13.43v4.78c.06.06.1.12.13.18.03.06.07.12.13.18h-.18v.9c.12,0,.21.03.27.09.06.06-.27.09-.27.09,0,.9.25,13.14.22,13.83-.03.69-.04,1.13-.04,1.31.06,0,.1.02.13.05.03.03.1.05.22.05,0,.06.01.11.04.14.03.03.04.08.04.14-.24-.12-.38-.18-.44-.18Z"/>
    <path d="M92.1,362.65c0-.3-.03-.6-.09-.9v-9.82c-.12-.42-.16-.9-.13-1.44.03-.54.04-1.02.04-1.44h0l.07-2.72c0-.13.01-.26,0-.38h0c0-.21-.02-.4-.05-.56l-.12-1.47v-2.7h-.13v-1.44s.03,0,.04,0c0-.06-.02-.13-.04-.2v-.29s.07-.05.13-.05c-.12-1.02-.12-2-.04-2.93.21-2.51-1.7-4.78-2.17-5.41-.47-.63-1.15-1.16-2.04-1.58v-.18c.12-.18.31-.36.58-.54.27-.18.46-.39.58-.63h.27v-.27c.18.06.35,0,.53-.18.18-.18.32-.39.44-.63.07-.13.12-.27.18-.42l.53-1.21.04-.54c.01-.09.03-.19.05-.27,0,0-.02,0-.03,0l.08-1.07c.02-.15.03-.29.03-.4l.04-.5h.05v-2.23c.03-.44.03-.88,0-1.33v-1.34c.02-.29.04-.58.09-.87-.04-.01-.05-.03-.09-.04v-2.21l.09.09c0-.12-.04-.28-.09-.45v-3.84s.05.03.09.05v-1.98s-.06,0-.09-.01v-.17h.09c-.06-.3-.07-.62-.04-.95.03-.33.04-.68.04-1.04v-.63h-.09v-.06s.05-.03.09-.03v-2.7c0-.54-.01-1.04-.04-1.49-.01-.18-.03-.33-.04-.45v-.5h-.08c.1-1.1.13-2.29.08-3.61-.06-1.38-.09-2.67-.09-3.88-.12-.3-.19-.65-.22-1.04-.03-.39-.19-.64-.49-.77-.3-.3-.59-.6-.89-.9-.3-.3-.62-.51-.97-.63-.06,0-.13,0-.2.03l-.2-.11c.06-.04.11-.07.13-.1-.3-.18-.72-.35-1.28-.5-.56-.15-1.15-.25-1.77-.32-.62-.06-1.2-.07-1.73-.05l-15.21.05h-1.62c-.64,0-1.26,0-1.89.02h0s0,0-.01,0c-.76.02-1.52.04-2.27.07-.18-.02-.3.26-.39.73-.17.46-.22.96-.14,1.48,0,.01,0,.02,0,.03-.11,2.67.17,6.77.17,6.77v1.62c0,.12-.01.26-.04.41-.02.1,0,.29.04.54v7.33c-.02.11-.04.22-.04.33-.01.2,0,.39.04.56v14.18c-.29.06-.5.09-.62.09h-.89c-.11.16-.11.35-.03.56l-.04.89c-.11.14-.16.32-.15.53.02.26.05.51.09.76l-.04.86h0c0,.18.02.39.04.63.03.24.04.63.04,1.17v2.25c0,.96.03,2.19.09,3.7.12,0,.4.01.84.05.44.03.72.1.84.23-.12,2.1-.13,4.18-.04,6.22.09,2.04.07,4.12-.04,6.22,0,.66.01,1.4.04,2.21.03.81.04,1.56.04,2.25s.03,1.52.09,2.48c-.12,1.8-.19,3.6-.22,5.41-.03,1.8.01,3.58.13,5.32h10.67c.5,0,.81-.12.93-.36-.06-1.2-.12-2.46-.18-3.79-.06-1.32-.03-2.58.09-3.78,0-1.38-.02-2.75-.04-4.1-.03-1.35-.04-2.72-.04-4.1-.06-.06-.15-.09-.27-.09.06,0,.09-.03.09-.09.06-4.63.06-9.22,0-13.79h3.32c1.09,0,2.2.03,3.32.09.12.72.16,1.44.13,2.16-.01.3,0,.59,0,.87h0s.04,2.37.04,2.37v5.81c0,.61.03,1.2.08,1.77h0s0,1.13,0,1.13c-.02.09-.02.15,0,.19v4.39c0,.45,0,.83,0,1.13v3.33c-.02.42-.01.84,0,1.25v.9l.16.85c.05.35.12.7.2,1.05l.09.9c.06.84.56,1.56,1.51,2.16,1-.3,2.05-.36,3.14-.18,1.09.18,2.14.12,3.14-.18-.06.06-.03.12.09.18.24,0,.55.01.93.05.38.03.78.03,1.2,0,.41-.03.8-.08,1.15-.14.35-.06.62-.18.8-.36-.06-.12-.09-.36-.09-.72-.3-.12-.44-.33-.44-.63ZM79.16,322.64c-.53.06-1.05.09-1.55.09h-3.06c-.41,0-.83-.03-1.24-.09l-.09-.09c0-1.68-.01-3.05-.04-4.1-.03-1.05-.04-2.18-.04-3.38v-11.81c-.12-.12-.21-.18-.27-.18.24-.36.34-.8.31-1.31-.03-.51-.04-.98-.04-1.4,1,0,1.99-.01,2.97-.05.98-.03,1.96-.05,2.97-.05v22.17h.1c0,.06,0,.11,0,.18Z"/>
    <path d="M124.74,318.22c-.21-2.1-.52-4.2-.93-6.31,0-.36-.01-.66-.04-.9-.03-.24-.07-.54-.13-.9-.06-.36-.12-.81-.18-1.35-.06-.54-.15-1.32-.27-2.34-.12-.9-.22-1.61-.31-2.12-.09-.51-.16-.99-.22-1.44-.06-.45-.12-.7-.18-.77,0-.36-.04-.93-.13-1.71-.09-.78-.18-1.58-.27-2.39-.09-.81-.19-1.53-.31-2.16-.12-.63-.27-1.01-.44-1.13.12,0,.21-.03.27-.09-.06-.6-.15-1.22-.27-1.85-.12-.63-.24-1.28-.35-1.94-.12-.06-.22-.09-.31-.09s-.19-.03-.31-.09h.53v-1.26c-.12,0-.18.06-.18.18l-8.24-.45c-.06,0-.27.02-.62.05-.36.03-.74.05-1.15.05s-.78.02-1.11.05c-.32.03-.52.05-.58.05v.36c-.24.3-.31.68-.22,1.13.09.45.04.83-.13,1.13l.18.18h-.27c-.18.84-.35,1.73-.53,2.66-.18.93-2.89,17.35-3.01,18.43-.06.12-.13.33-.22.63-.09.3-.16.63-.22.99-.06.36-.09.69-.09.99s.06.51.18.63c-.12,0-.21.03-.27.09,0,.54-.07,1.13-.22,1.76-.15.63-.25,1.22-.31,1.76-.12.36-.19.74-.22,1.13-.03.39-.13.74-.31,1.04,0,.12-.04.47-.13,1.04-.09.57-.19,1.2-.31,1.89-.12.69-4.24,25.48-4.39,26.77-.15,1.29-.37,2.57-.66,3.83l.18.18-.18.18c-.12.9-.25,1.89-.4,2.97-.15,1.08-.37,2.04-.67,2.88,0,.42-.06.69-.18.81.06.18.06.3,0,.36-.06.06-.09.18-.09.36.06,0,.15.02.27.05.12.03.38.06.8.09.41.03,1.06.08,1.95.14.89.06,2.13.15,3.72.27h2.57l.09.18c0-.12.06-.18.18-.18.94,0,1.92.03,2.92.09,0-.06.06-.09.18-.09.12-1.2,1.61-13.02,1.64-13.47.03-.45.07-.83.13-1.13.12-.18.18-.3.18-.36.12,0,.27.01.44.05.18.03.74.14,1.68.32h3.14c.32,0,.89-.01.8.14-.09.15.59,12.41.62,12.8.03.39.07.71.13.95h.18c0,.12-.04.3-.13.54-.09.24-.07.42.04.54.35,0,.86-.01,1.51-.05.65-.03,1.12.07,1.42.32.83,0,1.77-.05,2.83-.14,1.06-.09,1.98-.14,2.75-.14.29-.12.62-.15.97-.09.36.06.69.12,1.02.18.32.06.63.07.93.05.29-.03.59-.19.89-.5,0-.96-.06-1.91-.18-2.84-.12-.93-5.24-40.84-5.45-42.95ZM116.46,338.86c-.3,0-.56.02-.8.05-.24.03-.47.05-.71.05v-.09c-.95,0-1.49.02-1.64.05-.15.03-.16.05-.04.05h-.27v-.18h-.71c.06-.3.09-.72.09-1.26,0,0,1.34-12.72,1.55-14.38.21-1.65.34-3.26.4-4.82.18.12.32.59.44,1.4.12.81.22,1.73.31,2.75.09,1.02,1.33,15.05,1.42,15.41.09.36.07.69-.04.99Z"/>
    <path d="M280.87,340.12v-11.27c-.12-.48-.25-.89-.4-1.22-.15-.33-.31-.7-.49-1.13-.06,0-.1-.01-.13-.05-.03-.03-.07-.05-.13-.05.06-.24-.03-.46-.27-.68-.24-.21-.52-.41-.84-.59-.32-.18-.66-.36-1.02-.54-.35-.18-.59-.36-.71-.54.35-.18.72-.44,1.11-.77.38-.33.75-.64,1.11-.95-.12-.12-.18-.21-.18-.27h.35c.12-.3.23-.59.35-.86.12-.27.8-26.87.8-27.17s-.01-.59-.04-.86c-.03-.27-.04-.46-.04-.59-.06-.18-.18-.36-.35-.54,0-.06.01-.09.04-.09s.04-.03.04-.09c-.3.06-.47-.03-.53-.27.06,0,.09-.01.09-.05s.03-.05.09-.05c-.12-.3-.28-.62-.49-.95-.21-.33-.52-.55-.93-.68-.18-.24-.5-.42-.97-.54-.47-.12-.97-.19-1.51-.23-.53-.03-21.79-.05-22.15-.05s-.68.03-.97.09c-.12.12-.21.23-.27.32-.06.09-.18.32-.35.68,0,.24.09,5.32.09,5.32.06,0,.1.02.13.05.03.03.07.05.13.05-.12,0-.21.03-.27.09.06,3.24.09,6.47.09,9.69s.03,6.45.09,9.69c.06-.06.15-.09.27-.09-.18.3-.28.54-.31.72-.03.18-.04.42-.04.72.12,0,.21.03.27.09h-.27c0,.24.01.69.04,1.35.03.66-.01,1.05-.13,1.17-.18,0-.4.02-.66.05-.27.03-.46.01-.58-.05-.35.18-.49.47-.4.86.09.39.07.74-.04,1.04,0,1.14.03,2.27.09,3.38.06,1.11-.09,5-.09,5.72h.27c-.06.06-.12.09-.18.09.18.3.43.45.75.45h.93c.12.18.18.39.18.63v.81h.09l.18.09v.18h-.27v22.08h.18c-.12.12-.18.27-.18.45v7.21c0,.06.01.11.04.14.03.03.04.08.04.14-.12.12-.18.24-.18.36v.36h.18c-.06,0-.09.02-.09.05,0,.03-.03.05-.09.05.06.3.12.56.18.77.06.21.18.47.35.77.12-.06.24-.09.36-.09s.24-.03.35-.09c.18,0,.53.01,1.06.05.53.03,1.09.05,1.68.05h1.64c.5,0,.78-.06.84-.18.12.12.52.15,1.2.09.68-.06,1.11-.09,1.28-.09l-.09-.09c0-.06.06-.03.18.09.65.06,7.23-.09,7.88-.09,1.36.12,2.64.15,3.85.09,1.21-.06,2.5-.24,3.85-.54v-.18c.41-.06.84-.21,1.28-.45.44-.24.78-.54,1.02-.9-.12-.12-.18-.24-.18-.36.12,0,.24-.03.35-.09.12-.06.24-.09.35-.09.24-.48.49-.93.75-1.35.27-.42.4-.87.4-1.35h-.27c.06,0,.09-.01.09-.05,0-.03.03-.05.09-.05h.09c.06-.42.1-.86.13-1.31.03-.45-.02-.88-.13-1.31,0-.72-.09-12.5-.09-16.22ZM263.06,299.56c.18,0,.4-.03.67-.09.27-.06.46.03.58.27.24,0,.4.02.49.05.09.03.19.08.31.14.18-.12.43-.19.75-.23.32-.03.66-.03,1.02,0,.35.03.71.06,1.06.09.36.03.62.05.8.05.12.12.67,19.18-.06,19.15-.74-.03-4.4-.05-5.16-.05v-.63c-.06,0-.09.03-.09.09-.06-.06-.09-.12-.09-.18l.18-.09v-1.76c0-.21-.18-15.46-.18-15.46h.18c0,.12.01.15.04.09.03-.06.04-.33.04-.81h-.18v-.18h.18v-.18c.12,0,.19-.01.22-.05.03-.03.1-.05.22-.05-.06-.06-.09-.12-.09-.18-.24.06-.41.09-.53.09-.06.06-.09.15-.09.27v-.18c-.18-.06-.27-.12-.27-.18ZM269.04,351.16c.03.81.04,1.64.04,2.48-.41.06-.8.09-1.15.09s-2.54-.06-2.66-.18c-.3.06-.52.09-.66.09h-1.11c.12,0,.21-.03.27-.09,0-2.4-.01-4.06-.04-4.96-.03-.9-.04-13.34-.04-13.34-.06,0-.12-.03-.18-.09.06-.12.09-.27.09-.45s.03-.36.09-.54c-.24,0-.35-.03-.35-.09h.27c0-.42.01-.87.04-1.35.03-.48-.07-.9-.31-1.26h.18v-.54c0-.06.03-.15.09-.27.65-.06,4.28-.09,5.07-.09s.33,11.82.33,13.47v4.19c0,1.14.01,2.12.04,2.93Z"/>
    <path d="M164.91,350.49c-.18-1.5-.21-2.97-.09-4.42v-1.35c0-.78-.01-1.73-.04-2.84-.03-1.11-.04-2.31-.04-3.61s-.02-2.48-.04-3.56c-.03-1.08-.04-2.34-.04-3.78,0-2.28-.04-4.57-.13-6.85-.09-2.28-.18-15.16-.09-17.35.09-2.19.07-4.34-.04-6.44h-.27c.06-.06.1-.09.13-.09s.07-.03.13-.09v-1.71c0-.54.03-1.08.09-1.62-.12-.3-.16-.54-.13-.72.03-.18.04-.42.04-.72-.18,0-.3-.03-.35-.09.12,0,.24-.03.35-.09v-6.13c-.12-.18-.24-.39-.35-.63-.24-.06-.43-.07-.58-.05-.15.03-.37.05-.67.05h-3.59c-.86,0-5.77-.18-6.24.18v5.95c0,2.04.03,4.03.09,5.95.12,0,.21.03.27.09-.12,0-.21.03-.27.09.06,1.02.09,2.04.09,3.06v3.06c.12.12.18.21.18.27l-.18.09v2.57c0,.87.03,1.73.09,2.57.06,0,.12.03.18.09.06.3.12.48.18.54-.12,0-.24.03-.35.09,0,1.5.01,2.97.04,4.42.03,1.44.04,2.92.04,4.42l-.09.09c-.3-.72-.55-1.44-.75-2.16-.21-.72-.43-1.44-.66-2.16h-.03l-.56-1.75c-.06-.2-.12-.43-.2-.68,0,0-.02,0-.03-.01l-.26-.81s0,0,0,0l-.17-.53c-.02-.16-.05-.31-.11-.44-.02-.05-.05-.09-.07-.14l-2.54-7.86c-.24-.75-.53-1.69-.89-2.82h-.18v-.18c0,.06.06.09.18.09-.36-.9-.67-1.85-.93-2.84s-.58-1.94-.93-2.84c-.3-1.38-.68-2.69-1.15-3.92-.47-1.23-.86-2.51-1.15-3.83-.3-.12-.56-.24-.8-.36-1.18-.06-2.39-.1-3.63-.14-1.24-.03-2.45-.05-3.63-.05-.47,0-1.01-.01-1.59-.05-.59-.03-1.06.17-1.42.59-.12,1.74-.16,3.5-.13,5.27.03,1.77.44,51.54.53,52.86.09,1.32.1,2.65.04,3.97v8.29c0,1.08-.01,2.07-.04,2.97-.03.9-.04,1.44-.04,1.62v.09c0,.06.02.09.04.09s.04.03.04.09c.47.18,1.16.24,2.08.18.92-.06,1.67-.12,2.26-.18.83,0,1.67.02,2.52.05.86.03,1.7.14,2.52.32,1-.12,1.64-.17,1.91-.14.27.03.49.01.66-.05v-.18h.27c.12-.42.18-.99.18-1.71s-.09-17.86-.09-20.59-.03-5.51-.09-8.34h-.36c0-.06.03-.09.09-.09h.27v-2.07l.09.09c.21.72.43,1.45.67,2.2,0,0,0,.02,0,.02l3.74,12.23s0,.04.01.07c0,0,0,0,0,0l1.59,5.18c.29,1.05.59,2.12.89,3.2.12.06.24.15.35.27h-.18c0,.36.06.65.18.86.12.21.24.47.36.77,0,.48.1.95.31,1.4.21.45.4.89.58,1.31-.06.18-.04.48.04.9.09.42.22.86.4,1.31.18.45.37.87.58,1.26.21.39.4.65.58.77v.27c-.12,0-.18.03-.18.09,0,.12.06.3.18.54.24.06.46.09.66.09s8.02.06,8.9,0v-.18h.18c.06.06.06.15,0,.27h.18c.18-.24.27-.44.27-.59s.01-1.82.04-2.66c.03-.84.06-1.71.09-2.61.03-.9.04-1.71.04-2.43s-.06-1.14-.18-1.26c.29-1.38.35-2.82.18-4.33Z"/>
    <path d="M348.82,340.12c-.18-1.14-.21-2.22-.09-3.24-1.18-2.04-2.53-4.04-4.03-5.99-1.51-1.95-2.94-3.89-4.3-5.81-.06-.06-.1-.09-.13-.09-.03,0-.07-.03-.13-.09,0-.06.01-.1.04-.14.03-.03.04-.07.04-.14-.41-.48-.81-1.01-1.2-1.58-.33-.5-.68-.98-1.04-1.46-.18-.26-.39-.54-.61-.85,0-.07-.02-.13-.04-.17-.03-.06-.19-.27-.49-.63h-.05c-.29-.41-.6-.84-.92-1.29,0,0,0-.01-.01-.02-.06-.09-.12-.19-.18-.32,0,.02,0,.04,0,.06-1.01-1.42-2.09-2.95-3.01-4.25-.01-.21-.1-.35-.26-.4,0,.01,0,.02,0,.03-.12-.17-.24-.34-.35-.5v-.07h-.05c-.04-.05-.07-.1-.11-.16.05-.02.1-.02.16-.02-.12-.12-.22-.25-.31-.41-.07-.12-.17-.19-.3-.21-.15-.21-.28-.41-.4-.58-.06-.18-.13-.3-.23-.38-.02-.02-.05-.04-.07-.07-.14-.2-.24-.35-.28-.43-.08-.13-.12-.45-.15-.9h.06v-.99s-.05.02-.08.03c0-.09,0-.19,0-.28,0-.03.03-.06.08-.11-.03-.05-.05-.1-.08-.15,0-.13,0-.26,0-.39h.16c-.04-.2-.09-.39-.14-.57.01-.34.03-.69.04-1.05h0c.06-.3.09-.6.09-.9v-.84c.05-.73.09-1.44.14-2.08,0,0,0-.02,0-.03.11-1.52.21-2.63.21-2.63h3.32c1.09,0,2.2.03,3.32.09.06.12.09.26.09.41s.03.32.09.5c0,.18-.02.51-.04.99-.03.48-.04.99-.04,1.53v1.53c0,.48.06.75.18.81,0,.18-.01.47-.04.86-.03.39-.06.81-.09,1.26-.03.45-.04.87-.04,1.26s.03.68.09.86c.24,0,.53.03.89.09.35.06,7.47.06,8.06,0,.59-.06.97-.15,1.15-.27.12-.18.22-.51.31-.99.09-.48.15-1.01.18-1.58.03-.57.03-1.11,0-1.62-.03-.51-.1-.86-.22-1.04.06-.06.12-.09.18-.09.06-1.86.09-3.7.09-5.5s.06-9,0-9.06c-.82-.84-2.14-1.15-2.53-1.21-.38-.06-.78-.21-1.2-.45,0,0-20.7.15-21.35.63v.09c-.12,0-.31.06-.58.18-.27.12-.53.27-.8.45-.27.18-.49.38-.66.59-.18.21-.21.38-.09.5,0,.06-.01.11-.04.14-.03.03-.13.05-.13.05-.12,0-.21-.03-.27-.09-.24.18-.4.41-.49.68-.09.27-.22.47-.4.59,0,0,.09,11.03.09,12.17,0,.61,0,1.24.03,1.87,0,.61,0,1.35-.01,2.19,0,0,0,0-.02,0-.06.12-.09.33-.09.63.03-.06.06-.12.1-.18,0,.26,0,.52-.02.8-.05-.01-.08-.04-.08-.08v.72h.07c0,.33-.02.67-.03,1.02-.01-.01-.02-.02-.03-.03,0,.1.01.19.02.28-.01.26-.02.53-.03.8h-.08v.36s.04,0,.06-.02c0,.06,0,.13,0,.19-.02,0-.03,0-.05,0v.9c-.11,1.79.62,1.8.62,1.8.07.15.15.27.25.37l.64.95v.13s.03-.04.04-.06l1.19,1.77.26.38c.12.23.26.49.45.79.2.32.39.55.59.71l.34.49c.06.27.21.54.45.83.32.39.58.74.75,1.04.65.96,1.33,1.91,2.04,2.84.71.93,1.39,1.88,2.04,2.84.29.48.59.93.89,1.35.29.42,2.39,3.51,2.92,4.24.53.72,3.81,5.62,4.16,5.68,0,0,.18,3.77.18,4.64s-.03,1.73-.09,2.57c.06,0,.09.03.09.09-.12.84-.16,1.77-.13,2.79.03,1.02.04,1.95.04,2.79h-1.55c-.5,0-.99.03-1.46.09h-.4c-.15,0-.72-.03-1.73-.09v.18c-.3-.12-.61-.19-.93-.23-.32-.03-.64-.05-.93-.05v-.86c0-.27.18-3.7.18-4.69s-.15-1.91-.44-2.75c-1.3,0-6.19-.26-6.69-.23-.5.03-.93.02-1.28-.05-.71-.06-2.13-.09-2.13-.09.12.3-.18,4-.18,4.6s-.21,6.34-.09,7.84c.12,1.5.18,2.88.18,4.15.06.48.15.92.27,1.31.12.39.27.83.44,1.31.47.24.89.48,1.24.72.35.24.8.36,1.33.36v-.18c.12.06.19.09.22.09s19.71.09,20.6.09c.06-.06.12-.09.18-.09s.15-.03.27-.09c1.36-.12,2.32-.6,2.88-1.44.56-.84,1.02-1.86,1.37-3.06,0-.18.01-.35.04-.5.03-.15.04-.32.04-.5v-10.46c.06-.96.09-1.74.09-2.34s-.02-1.16-.04-1.67c-.03-.51-.04-.79-.04-.86.18-1.02.18-2.1,0-3.24Z"/>
    <path d="M381.07,338.5s.02,0,.03,0c0-.07-.02-.15-.06-.25-.14-.86-.59-.87-.59-.87v-.02s.02-.02.03-.03c-.11-.23-.25-.4-.42-.52l-.2-.3c0-.06-.03-.11-.09-.17,0,0-.01,0-.02,0l-.16-.23v-.23s-.06.08-.07.12l-.2-.3c-.02-.09-.07-.18-.17-.27,0,0,0,.01,0,.02l-.56-.83c-.07-.13-.15-.27-.23-.44h-.07l-.05-.08c-.12-.29-.31-.65-.59-1.09-.24-.4-.48-.66-.73-.81l-.18-.26c-.04-.31-.19-.63-.47-.96-.32-.39-.58-.74-.75-1.04-.65-.96-1.33-1.91-2.04-2.84-.71-.93-1.39-1.88-2.04-2.84-.3-.48-7.62-11.21-7.97-11.27,0,0-.18-3.77-.18-4.64s.03-1.73.09-2.57c-.06,0-.09-.03-.09-.09.12-.84.16-1.77.13-2.79-.03-1.02-.04-1.95-.04-2.79h1.55c.5,0,.99-.03,1.46-.09h.4c.15,0,.72.03,1.73.09v-.18c.3.12.61.19.93.23.33.03.64.05.93.05v.86c0,.27-.06,1.49-.18,1.85v2.84c0,.99.15,1.91.44,2.75h2.3c.24,0,.44.06.62.18.06-.06.09-.12.09-.18h-.18c0-.06.03-.12.09-.18.24.24.56.39.97.45.41.06.86.07,1.33.05.47-.03.96-.06,1.46-.09.5-.03.93-.02,1.28.05.71.06,1.11.07,1.19.05.09-.03.07-.05-.04-.05v-.18h.35v.27h.62c-.12-.3-.13-.6-.04-.9.09-.3.43-10.04.31-11.54-.12-1.5-.18-2.88-.18-4.15-.06-.48-.15-.92-.27-1.31-.12-.39-.27-.83-.44-1.31-.47-.24-.89-.48-1.24-.72-.36-.24-5.85-.52-6.56-.5-.71.03-1.27.05-1.68.05s-.71.02-.89.05c-.18.03-.41.05-.71.05v-.09h-5.76c-1.18,0-2.35.02-3.5.05-1.15.03-2.17.05-3.06.05-.06.06-.12.09-.18.09s-.15.03-.27.09c-1.36.12-2.32.6-2.88,1.44-.56.84-1.02,1.86-1.37,3.06,0,.18-.01.35-.04.5-.03.15-.04.32-.04.5v10.46c-.06.96-.09,1.74-.09,2.34s.02,1.16.04,1.67c.03.51.04.79.04.86-.18,1.02-.18,2.1,0,3.24.18,1.14.21,2.22.09,3.24,1.18,2.04,2.52,4.04,4.03,5.99,1.51,1.95,2.94,3.89,4.3,5.81.06.06.1.09.13.09s.07.03.13.09c0,.06-.01.1-.04.14-.03.03-.04.07-.04.14.41.47.8.99,1.18,1.56,0,.04-.02.08-.02.08,0,0,.7.98,1.7,2.39,0,.01,0,.02,0,.03.02.05.12.18.3.4,1.31,1.84,3.02,4.25,4.37,6.16.03.12.09.2.18.25.18.26.36.51.52.75-.03,0-.06.01-.1.01.12.12.22.25.31.41.05.09.12.15.21.19.55.79.94,1.36,1.04,1.54.07.12.12.43.14.85h-.03v.99s.03-.01.05-.02c0,.11,0,.21,0,.32-.01.02-.03.04-.05.06.02.03.03.06.05.1,0,.14,0,.29,0,.45h-.13c.03.17.07.33.11.49-.01.43-.03.88-.06,1.34-.03.23-.06.46-.06.69v.38c-.14,2.45-.35,4.84-.38,5.21h-3.3c-1.09,0-2.2-.03-3.32-.09-.06-.12-.09-.26-.09-.41s-.03-.32-.09-.5c0-.18.01-.51.04-.99.03-.48.04-.99.04-1.53v-1.53c0-.48-.06-.75-.18-.81,0-.18.02-.47.04-.86.03-.39.06-.81.09-1.26.03-.45.04-.87.04-1.26s-.03-.68-.09-.86c-.24,0-6.29-.26-7-.23-.71.03-1.36.08-1.95.14-.59.06-.97.15-1.15.27-.12.18-.22.51-.31.99-.09.48-.15,1.01-.18,1.58-.03.57-.03,1.11,0,1.62.03.51.1.86.22,1.04-.06.06-.12.09-.18.09-.06,1.86-.09,3.7-.09,5.5v5.59c.18.18.27.33.27.45h-.27v.36l.18.27h.49s.07.03.13.09c-.12.06-.25.09-.4.09s-.28.03-.4.09c-.12.66,1.55,1.91,1.64,1.94.09.03.19.1.31.23-.12.06-.56.51-.44.63.3.3.64.48,1.02.54.39.06.78.21,1.2.45l16.56-.09v.18c.3,0,4.13-.24,4.78-.72v-.09c.12,0,.31-.06.58-.18.27-.12.53-.27.8-.45.27-.18.49-.38.67-.59.18-.21.21-.38.09-.5,0-.06.02-.11.04-.14.03-.03.04-.11.04-.23-.18.12-.32.18-.44.18.24-.18.41-.33.53-.45v.45c.12,0,.21.03.27.09.24-.18.4-.41.49-.68.09-.27.22-.47.4-.59v-8.38c-.12,0-.21-.03-.27-.09.06-.06.1-.09.13-.09s.07-.06.13-.18c-.06-1.14-.09-2.28-.09-3.43,0-.88-.02-1.78-.06-2.7,0-.42,0-.88.01-1.38.02,0,.03.02.05.02.06-.12.09-.33.09-.63-.04.08-.08.15-.13.22,0-.27.01-.56.02-.85.07,0,.11.04.11.09v-.72h-.09c0,.06,0,.12-.01.17.01-.4.02-.8.04-1.22.02.02.04.04.06.06,0-.15-.02-.28-.05-.41,0-.22.02-.44.03-.67h.1v-.36s-.06,0-.09.02c0-.07,0-.13.01-.2.03,0,.05,0,.08,0v-.9s-.02.01-.03.02c.01-.25.01-.46,0-.65Z"/>
  </g>
</svg>