<?xml version="1.0" encoding="UTF-8"?>
<svg id="Layer_1" data-name="Layer 1" xmlns="http://www.w3.org/2000/svg" viewBox="0 0 726 202">
  <defs>
    <style>
      .cls-1 {
        fill: #29314b;
      }
    </style>
  </defs>
  <g>
    <path d="M429.36,144.89c0-.57.02-1.45.06-2.63.04-1.18.18-7.78.18-8.27s-.02-1.23-.06-2.21c-.04-.98-.1-2.41-.18-4.29-.08-.08-.2-.12-.36-.12.08,0,.14-.02.18-.06.04-.04.1-.06.18-.06,0-.65-.02-1.27-.06-1.84-.04-.57-.06-1.14-.06-1.72-.65-.33-1.42-.47-2.31-.43-.89.04-1.7.06-2.43.06l-.12.24c-.16-.16-.61-.26-1.33-.31-.73-.04-1.52-.08-2.37-.12-.85-.04-1.68-.06-2.49-.06h-1.7c-.32.16-.57.24-.73.24s-.61.08-1.33.24c0,2.21.02,4.43.06,6.68.04,2.25.06,4.51.06,6.8-.32.17-.53.29-.61.37-1.13,0-2.27.02-3.4.06-1.13.04-2.23.02-3.28-.06-.08-1.96-.08-4.12,0-6.5.08-2.37-.47-19.03-.43-22.79.04-3.76-.04-28.08,0-31.31.04-3.23-.46-12.47.11-12.43.57.04,2.69.01,3.29.05.61.04,1.15.04,1.64,0,.48-.04.81-.14.97-.31.08.08.34.14.79.18.44.04.75.1.91.18v6.37c.08-.08.16-.12.24-.12.16,0,.24.08.24.24,0,.08-.12.12-.37.12v3.55c.24,0,.44.04.61.12,1.38-.08,2.73-.12,4.07-.12s2.69-.04,4.07-.12c.16,0,.3.02.43.06.12.04.26.1.43.18.97-.08,1.66-.14,2.06-.18.4-.04,1.29-.1,2.67-.19.08-.08.14-.16.18-.24.04-.08.1-.16.18-.24-.16-2.86-.24-5.76-.24-8.7v-8.7c-.16-.41-.26-.86-.3-1.35-.04-.49-.06-.94-.06-1.35-.32,0-.53.04-.61.12-.08.08-.28.04-.61-.12v-.12c.24-.08.53-.12.85-.12,0-.49-.16-.73-.49-.73-.08-.33-.24-.65-.48-.98-.08.08-.16.12-.24.12h-.36c.08-.08.2-.12.36-.12-1.05-1.31-2.35-1.96-3.88-1.96-.24-.41-10.14-.71-13.42-.67-3.28.04-6.62.06-10.02.06-.65.24-1.34.31-2.06.18-.73-.12-1.42.1-2.06.67-.65.16-1.24.55-1.76,1.16-.53.61-1.12,1.12-1.76,1.53-.08.49-.28.82-.61.98.08.08.12.2.12.37-.08,0-.14.02-.18.06-.04.04-.1.06-.18.06-.08.41-.28.86-.61,1.35-.32.49.1,47.17.06,51.83-.04,4.66.1,39.19.18,39.88.08.69.24,1.31.48,1.84s.61.84,1.09.92c-.08,0-.12.04-.12.12.81.82,1.62,1.43,2.43,1.84.24,0,.59.02,1.03.06.44.04.75.18.91.43.65-.08,1.29-.12,1.94-.12s11.63-.04,15.24-.12c3.6-.08,7.22-.2,10.87-.37.4-.24.85-.51,1.33-.8.48-.28.93-.55,1.34-.8.32-.49.77-1.16,1.34-2.02.57-.86.73-1.53.49-2.02v-1.47Z"/>
    <path d="M475.37,48.95c-.41,0-.85.02-1.34.06-.48.04-.97.1-1.46.18l.24-.24c-.81,0-1.58.02-2.31.06-.73.04-1.46.06-2.19.06v.37c-.08,0-.12-.12-.12-.37-.49,0-.85.04-1.09.12l.24-.24h-3.76c-1.21,0-2.47.04-3.76.12-.08,0-.2.08-.36.24l-.24-.24h-.48c-.24.98-.39,1.96-.43,2.94-.04.98.02,34.02.18,35.17.16,1.14.16,2.17,0,3.06-1.21-.16-2.21-.2-2.97-.12-.77.08-1.72.12-2.85.12,0,.41.04.74.12.98-.24-.33-.36-.65-.36-.98l-1.7-.24v.37c-.08.08-.16.12-.24.12,0,.25.04.41.12.49,0,.08.04.12.12.12.08-.16.12-.33.12-.49l.36.37c-.16.16-.36.24-.61.24-.08-.08-.12-.16-.12-.24s-.04-.37-.12-.86h-.37v-4.17c.49-.73.24-31.81.24-34.18.16-.57.2-.96.12-1.16-.08-.2-.16-.59-.24-1.16-.41,0-.85.02-1.33.06-.49.04-.97.1-1.46.18l.24-.24c-.81,0-1.58.02-2.31.06-.73.04-1.46.06-2.18.06v.37c-.08,0-.12-.12-.12-.37-.48,0-.85.04-1.09.12l.24-.24h-3.76c-1.21,0-2.47.04-3.76.12-.08,0-.2.08-.36.25l-.24-.25h-.49c-.24.98-.38,1.96-.43,2.94-.04.98.12,33.92.24,34.86.12.94.14,1.86.06,2.76-.4-.16-.71-.2-.91-.12-.2.08-.59.17-1.15.24,0,.41.02.86.06,1.35.04.49.1.98.18,1.47l-.24-.24c0,.82.02,1.59.06,2.33.04.73.06,1.47.06,2.21h.36c0,.08-.12.12-.36.12,0,.49.04.86.12,1.1l-.24-.24v3.8c0,1.23.04,2.49.12,3.8,0,.08.08.21.24.37l-.24.24v.49c.57.24,1.17.37,1.82.37,0,.41.02.78.06,1.1.04.33-.04,2.74,0,3.8.04,1.06.16,36.57.12,36.7-.04.12-.06.27-.06.43h.48c.16,0,.32.08.49.24-.32.16-.55.27-.67.31-.12.04-.3.22-.55.55l.36.98.36-.24.37.24.12-.12c.16.49.59.8,1.27.92.69.12,1.44.16,2.25.12.81-.04,1.62-.08,2.43-.12.81-.04,1.41.06,1.82.31h3.76c0-.16-.02-.27-.06-.31-.04-.04-.06-.1-.06-.18.16.08.28.2.36.37,1.86-.08,2.93-.12,3.22-.12s.5-.04.67-.12c-.16,0-.28-.04-.36-.12v-.12h.36c.16-.41.18-.82.06-1.23-.12-.41-.26-.77-.43-1.1h.24v-2.08c-.08-.08-.16-.12-.24-.12v-.24h.24c0-2.12-.02-3.78-.06-4.96-.04-1.18-.06-2.12-.06-2.82v-1.59c0-.37.04-3.2.12-3.61-.16-.33-.24-.78-.24-1.35-.08-.08-.2-.12-.36-.12.08-.08.12-.2.12-.37l.37.24s.02-6.98.06-8.7c.04-1.72-.02-3.39-.18-5.02.08-.08.16-.12.24-.12v-1.16c0-.37.32-8.19.24-8.27h.24v-1.96c.16,0,.28-.04.36-.12.32.16,6.8.16,7.77,0v.92c0,.29.12,6.39.12,8.76h.36c0,.08-.12.16-.36.24v3c0,.29.02.57.06.86.04.29.06.63.06,1.04h.24c-.16.17-.24.29-.24.37v1.1h.24c-.16.16-.28.41-.36.73,0,1.72.02,3.45.06,5.21.04,1.76.06,21.5.06,21.5l.36-.24.36.24.12-.12c.16.49.59.8,1.27.92.69.12,1.44.16,2.25.12.81-.04,1.62-.08,2.43-.12.81-.04,1.42.06,1.82.31h3.76c0-.16-.02-.26-.06-.31-.04-.04-.06-.1-.06-.18.16.08.28.21.36.37,1.86-.08,2.93-.12,3.22-.12s.5-.04.67-.12c-.16,0-.28-.04-.36-.12v-.12h.36c.16-.41.18-.82.06-1.23-.12-.41-.26-.78-.43-1.1h.24v-2.08c-.08-.08-.16-.12-.24-.12v-.24h.24c0-2.12-.02-3.78-.06-4.96-.04-1.18-.06-2.12-.06-2.82v-1.59c0-.37.04-3.21.12-3.61-.16-.33-.24-.78-.24-1.35-.08-.08-.2-.12-.36-.12.08-.08.12-.2.12-.37l.36.24.12-3.68c-.08-1.63-.1-3.31-.06-5.02.04-1.72.43-26.34.43-27.57v-3.68c-.08,0-.14-.02-.18-.06-.04-.04-.14-.06-.3-.06,0-.08-.04-.2-.12-.37h.61c-.16-1.06-.22-2.1-.18-3.13.04-1.02-.02-27.94.06-30.26.08-2.33.12-4.68.12-7.05.16-.57.2-.96.12-1.16-.08-.2-.16-.59-.24-1.16Z"/>
    <path d="M592.04,102.37c-.08-.9-.12-1.8-.12-2.7v-2.7c-.16-.33-.26-.51-.3-.55-.04-.04-.06-.14-.06-.31l.24.24v-8.09c-.24-.41-.32-1-.24-1.78.08-.77.12-1.37.12-1.78h-.61c0-.08.2-.12.61-.12v-9.92l-.12-.12v-.37c.08-2.12.12-4.18.12-6.19s.04-4.02.12-6.07c-.08-.65-.1-1.33-.06-2.02.04-.69-.59-3.12-.43-3.86,0-.65-.12-1.27-.36-1.84-.24-.57-.45-1.18-.61-1.84-.08,0-.14-.02-.18-.06-.04-.04-.14-.06-.3-.06.08-.08.14-.12.18-.12.04,0,.1-.04.18-.12-.41-.41-.87-.8-1.4-1.16-.53-.37-1.07-.71-1.64-1.04-2.27-.16-4.53-.22-6.8-.18-2.27.04-4.53.06-6.8.06-.24-.16-.48-.16-.73,0-2.43,0-4.41-.02-5.95-.06-1.54-.04-2.79-.06-3.76-.06s-1.78-.02-2.43-.06c-.65-.04-1.38-.06-2.19-.06,0,.08.02.14.06.18.04.04.06.1.06.18h-.73v-.25c.16,0,.16-.02,0-.06-.16-.04-4.31.94-4.43.98-.12.04-.47.23-1.03.55-.08.08-.12.18-.12.31s-.04.27-.12.43c-.57-.16-1.07.24-1.52,1.23-.45.98-.75,1.63-.91,1.96,0,.41-.02.78-.06,1.1-.04.33-.06.65-.06.98-.16.49-.24.98-.24,1.47v12.25c0,.73.3,38.76.43,43.25.12,4.49.18,8.99.18,13.48.08,1.47.12,2.63.12,3.49v4.84h.24l-.24.24v7.35c.08.24.14.51.18.8.04.29.18.51.43.67-.08,0-.16.04-.24.12.24.66.57,1.31.97,1.96.41.66.77,1.31,1.09,1.96.08-.08.24-.12.48-.12v.61c.41.41.87.8,1.4,1.16.53.37,1.07.59,1.64.68v.37c.49.08.83.14,1.03.18.2.04.63.18,1.27.43.57.08,25.21,0,27.07-.49,1.86-.49,3.48-1.67,4.86-3.55h.24c.16-.57.34-1.12.55-1.65.2-.53.38-1.12.55-1.78.08-2.04.14-3.61.18-4.72.04-1.1.08-2,.12-2.7.04-.69.06-1.25.06-1.65v-1.47h-.61c0-.08.2-.12.61-.12-.08-.24-.12-.61-.12-1.1-.16,0-.24.04-.24.12,0-.08-.02-.12-.06-.12-.04,0-.06-.04-.06-.12h.48v-.67c0-.12-.04-.43-.12-.92h.12c-.08-1.88-.1-3.74-.06-5.58.04-1.84.06-3.7.06-5.58-.32-.41-.41-.73-.24-.98.08.08.12.24.12.49,0-.41.02-.82.06-1.23.04-.41.06-.82.06-1.22h-.12l.12-.12v-12.13h-.24c0-.16.04-.26.12-.31.08-.04.04-.26-.12-.67.08,0,.12-.02.12-.06,0-.04.04-.06.12-.06-.08-.24-.36-.45-.85-.61h.85c-.08-.16-.12-.37-.12-.61h-.24c0-.08.12-.16.36-.24ZM575.53,134.6c0,.24-.02.51-.06.8-.04.29-.06.55-.06.8-.32.17-.97.49-.97.49-.08.17-8.1-.24-8.5-.49,0-3.27-.02-6.51-.06-9.74-.04-3.23-.3-40.37-.3-41.6s-.04-2.45-.12-3.68c.16-2.7.2-5.41.12-8.15-.08-2.74-.12-5.41-.12-8.03.16-.16.69-.26,1.58-.31.89-.04,1.86-.04,2.91,0,1.05.04,2.06.08,3.03.12.97.04,1.58.06,1.82.06.08.08.12.16.12.24s.04.33.12.73c.16,0,.32.04.48.12v.12h-.48c-.16,2.86-.16,5.68,0,8.45h.24c-.08,0-.12.02-.12.06s-.04.06-.12.06c0,1.22.02,2.45.06,3.67.04,1.23-.06,7.64-.06,8.7s.12,16.7.12,18.26v6.49c.08.08.14.17.18.24.04.08.1.17.18.24h-.24v1.23c.16,0,.28.04.36.12.08.08-.36.12-.36.12,0,1.23.34,17.87.3,18.81-.04.94-.06,1.53-.06,1.78.08,0,.14.02.18.06.04.04.14.06.3.06,0,.08.02.14.06.18.04.04.06.1.06.18-.32-.16-.53-.24-.61-.24Z"/>
    <path d="M285.74,149.92c0-.41-.04-.82-.12-1.23v-13.35c-.16-.57-.23-1.23-.18-1.96.04-.74.06-1.39.06-1.96h0l.1-3.7c0-.18.02-.36.01-.52h0c0-.28-.02-.54-.06-.77l-.16-2v-3.67h-.18v-1.95s.04,0,.06,0c0-.08-.02-.17-.06-.27v-.4s.1-.06.18-.06c-.16-1.39-.17-2.71-.06-3.98.28-3.42-2.33-6.49-2.97-7.35-.65-.86-1.58-1.57-2.79-2.14v-.24c.16-.24.42-.49.79-.73.36-.24.63-.53.79-.86h.36v-.37c.24.08.48,0,.73-.24.24-.24.44-.53.61-.86.09-.18.17-.37.25-.57l.72-1.64.06-.74c.02-.13.04-.25.06-.37-.01,0-.02,0-.03-.01l.11-1.45c.02-.21.04-.39.04-.55l.05-.68h.07v-3.03c.04-.6.05-1.2,0-1.81v-1.82c.03-.4.06-.79.12-1.18-.05-.02-.07-.04-.12-.05v-3.01l.12.12c0-.16-.05-.38-.12-.61v-5.22s.07.04.12.07v-2.7s-.09,0-.12-.01v-.23h.12c-.08-.41-.1-.84-.06-1.29.04-.45.06-.92.06-1.41v-.86h-.12v-.08s.07-.04.12-.04v-3.67c0-.74-.02-1.41-.06-2.02-.02-.25-.04-.44-.06-.61v-.68h-.11c.14-1.49.18-3.12.11-4.9-.08-1.88-.12-3.63-.12-5.27-.16-.41-.26-.88-.3-1.41-.04-.53-.26-.88-.67-1.04-.41-.41-.81-.82-1.21-1.23-.41-.41-.85-.69-1.33-.86-.08,0-.17.01-.27.03l-.28-.14c.08-.05.15-.1.18-.13-.41-.24-.99-.47-1.76-.67-.77-.2-1.58-.35-2.43-.43-.85-.08-1.64-.1-2.37-.06l-20.85.06h-2.22c-.87,0-1.73.01-2.59.03h0s0,0-.02,0c-1.05.02-2.08.05-3.1.09-.24-.03-.41.35-.53.99-.23.63-.3,1.3-.2,2.01,0,.02,0,.03,0,.05-.15,3.63.24,9.2.24,9.2v2.21c0,.16-.02.35-.06.55-.03.14,0,.39.06.73v9.97c-.03.14-.05.29-.06.45-.02.27,0,.53.06.76v19.27c-.4.08-.69.12-.85.12h-1.21c-.15.22-.15.48-.04.76l-.06,1.21c-.15.19-.22.43-.21.73.02.35.06.69.12,1.04l-.06,1.17h0c0,.24.02.53.06.86.04.33.06.86.06,1.59v3.06c0,1.31.04,2.98.12,5.02.16,0,.55.02,1.15.06.61.04.99.14,1.15.31-.16,2.86-.18,5.68-.06,8.45.12,2.78.1,5.6-.06,8.45,0,.9.02,1.9.06,3,.04,1.1.06,2.12.06,3.06s.04,2.06.12,3.37c-.16,2.45-.26,4.9-.3,7.35-.04,2.45.02,4.86.18,7.23h14.63c.69,0,1.11-.16,1.27-.49-.08-1.63-.16-3.35-.24-5.15-.08-1.8-.04-3.51.12-5.15,0-1.88-.02-3.74-.06-5.58-.04-1.84-.06-3.69-.06-5.58-.08-.08-.2-.12-.37-.12.08,0,.12-.04.12-.12.08-6.29.08-12.54,0-18.75h4.55c1.5,0,3.01.04,4.55.12.16.98.22,1.96.18,2.94-.02.4-.01.8,0,1.19h0s.06,3.22.06,3.22v7.9c0,.83.04,1.63.11,2.41h0s0,1.53,0,1.53c-.03.12-.03.21,0,.26v5.97c.01.61.01,1.13.01,1.53v4.53c-.02.57-.02,1.14,0,1.7v1.22l.22,1.16c.07.48.16.96.27,1.43l.12,1.23c.08,1.14.77,2.12,2.06,2.94,1.37-.41,2.81-.49,4.31-.24,1.5.24,2.93.16,4.31-.24-.08.08-.04.16.12.24.32,0,.75.02,1.27.06.53.04,1.07.04,1.64,0,.57-.04,1.09-.1,1.58-.18.48-.08.85-.24,1.09-.49-.08-.16-.12-.49-.12-.98-.41-.16-.61-.45-.61-.86ZM268.01,95.51c-.73.08-1.44.12-2.12.12h-4.19c-.57,0-1.13-.04-1.7-.12l-.12-.12c0-2.29-.02-4.14-.06-5.58-.04-1.43-.06-2.96-.06-4.59v-16.05c-.16-.16-.28-.24-.36-.24.32-.49.46-1.08.43-1.78-.04-.69-.06-1.33-.06-1.9,1.37,0,2.73-.02,4.07-.06,1.34-.04,2.69-.06,4.07-.06v30.14h.13c0,.09-.01.15-.01.24Z"/>
    <path d="M330.47,89.51c-.28-2.86-.71-5.72-1.28-8.58,0-.49-.02-.9-.06-1.23-.04-.33-.1-.73-.18-1.23-.08-.49-.16-1.1-.24-1.84-.08-.74-.2-1.8-.36-3.19-.16-1.23-.3-2.18-.43-2.88-.12-.69-.22-1.35-.3-1.96-.08-.61-.16-.96-.24-1.04,0-.49-.06-1.27-.18-2.33-.12-1.06-.24-2.14-.36-3.25-.12-1.1-.26-2.08-.43-2.94-.16-.86-.36-1.37-.61-1.53.16,0,.28-.04.36-.12-.08-.82-.2-1.65-.36-2.51-.16-.86-.33-1.73-.49-2.63-.16-.08-.3-.12-.43-.12s-.26-.04-.43-.12h.73v-1.72c-.16,0-.24.08-.24.24l-11.29-.61c-.08,0-.36.02-.85.06-.49.04-1.01.06-1.58.06s-1.07.02-1.52.06c-.45.04-.71.06-.79.06v.49c-.32.41-.43.92-.3,1.53.12.61.06,1.12-.18,1.53l.24.25h-.37c-.24,1.14-.48,2.35-.73,3.61-.24,1.27-3.97,23.59-4.13,25.06-.08.16-.18.45-.3.86-.12.41-.22.86-.3,1.35-.08.49-.12.94-.12,1.35s.08.69.24.86c-.16,0-.28.04-.37.12,0,.73-.1,1.53-.3,2.39-.2.86-.35,1.65-.43,2.39-.16.49-.26,1-.3,1.53-.04.53-.18,1-.43,1.41,0,.16-.06.63-.18,1.41-.12.78-.26,1.64-.43,2.57-.16.94-5.81,34.63-6.01,36.39-.2,1.76-.51,3.49-.91,5.21l.24.24-.24.24c-.16,1.23-.35,2.57-.55,4.04-.2,1.47-.51,2.78-.91,3.92,0,.57-.08.94-.24,1.1.08.24.08.41,0,.49-.08.08-.12.24-.12.49.08,0,.2.02.36.06.16.04.53.08,1.09.12.57.04,1.46.1,2.67.19,1.21.08,2.91.2,5.1.37h3.52l.12.24c0-.16.08-.24.24-.24,1.29,0,2.63.04,4.01.12,0-.08.08-.12.24-.12.16-1.63,2.2-17.71,2.25-18.32.04-.61.1-1.12.18-1.53.16-.24.24-.41.24-.49.16,0,.37.02.61.06.24.04,1.01.18,2.31.43h4.31c.44,0,1.21-.02,1.09.18-.12.21.81,16.87.85,17.4.04.53.1.96.18,1.29h.24c0,.17-.06.41-.18.74-.12.33-.1.57.06.73.49,0,1.17-.02,2.06-.06.89-.04,1.54.1,1.94.43,1.13,0,2.43-.06,3.88-.18,1.46-.12,2.71-.18,3.76-.18.4-.16.85-.2,1.34-.12.49.08.95.16,1.4.24.44.08.87.1,1.28.06.4-.04.81-.26,1.21-.67,0-1.31-.08-2.59-.24-3.86-.16-1.27-7.18-55.52-7.47-58.38ZM319.12,117.57c-.41,0-.77.02-1.09.06-.32.04-.65.06-.97.06v-.12c-1.3,0-2.04.02-2.25.06-.2.04-.22.06-.06.06h-.36v-.24h-.97c.08-.41.12-.98.12-1.72,0,0,1.84-17.3,2.12-19.54.28-2.25.46-4.43.55-6.55.24.17.45.8.61,1.9.16,1.1.3,2.35.43,3.74.12,1.39,1.82,20.46,1.94,20.95.12.49.1.94-.06,1.35Z"/>
    <path d="M544.45,119.28v-15.32c-.16-.65-.34-1.2-.55-1.65-.2-.45-.43-.96-.67-1.53-.08,0-.14-.02-.18-.06-.04-.04-.1-.06-.18-.06.08-.32-.04-.63-.36-.92-.32-.28-.71-.55-1.15-.8-.44-.25-.91-.49-1.4-.74-.48-.24-.81-.49-.97-.73.49-.24.99-.59,1.52-1.04.53-.45,1.03-.88,1.52-1.29-.16-.16-.24-.29-.24-.37h.49c.16-.41.32-.8.48-1.16.16-.37,1.09-36.53,1.09-36.94s-.02-.8-.06-1.16c-.04-.37-.06-.63-.06-.8-.08-.24-.24-.49-.48-.73,0-.08.02-.12.06-.12s.06-.04.06-.12c-.41.08-.65-.04-.73-.37.08,0,.12-.02.12-.06s.04-.06.12-.06c-.16-.41-.38-.84-.67-1.29-.28-.45-.71-.75-1.28-.92-.24-.33-.69-.57-1.34-.74-.65-.16-1.33-.26-2.06-.31-.73-.04-29.87-.06-30.35-.06s-.93.04-1.33.12c-.16.16-.28.31-.37.43-.08.12-.24.43-.48.92,0,.33.12,7.23.12,7.23.08,0,.14.02.18.06.04.04.1.06.18.06-.16,0-.28.04-.36.12.08,4.41.12,8.8.12,13.17s.04,8.76.12,13.17c.08-.08.2-.12.36-.12-.24.41-.39.73-.43.98-.04.24-.06.57-.06.98.16,0,.28.04.36.12h-.36c0,.33.02.94.06,1.84.04.9-.02,1.43-.18,1.59-.24,0-.55.02-.91.06-.36.04-.63.02-.79-.06-.49.25-.67.64-.55,1.16.12.53.1,1-.06,1.41,0,1.55.04,3.08.12,4.59.08,1.51-.12,6.8-.12,7.78h.36c-.08.08-.16.12-.24.12.24.41.59.61,1.03.61h1.28c.16.24.24.53.24.86v1.1h.12l.24.12v.24h-.37v30.02h.24c-.16.17-.24.37-.24.61v9.8c0,.08.02.14.06.19.04.04.06.1.06.18-.16.16-.24.33-.24.49v.49h.24c-.08,0-.12.02-.12.06,0,.04-.04.06-.12.06.08.41.16.76.24,1.04.08.29.24.63.48,1.04.16-.08.32-.12.49-.12s.32-.04.48-.12c.24,0,.73.02,1.46.06.73.04,1.5.06,2.31.06h2.25c.69,0,1.07-.08,1.15-.24.16.16.71.2,1.64.12.93-.08,1.52-.12,1.76-.12l-.12-.12c0-.08.08-.04.24.12.89.08,9.91-.12,10.81-.12,1.86.16,3.62.2,5.28.12,1.66-.08,3.42-.33,5.28-.73v-.24c.56-.08,1.15-.29,1.76-.61.61-.33,1.07-.73,1.4-1.22-.16-.16-.24-.33-.24-.49.16,0,.32-.04.48-.12.16-.08.32-.12.49-.12.32-.65.67-1.27,1.03-1.84.36-.57.55-1.18.55-1.84h-.36c.08,0,.12-.02.12-.06,0-.04.04-.06.12-.06h.12c.08-.57.14-1.16.18-1.78.04-.61-.02-1.2-.18-1.78,0-.98-.12-16.99-.12-22.06ZM520.05,64.15c.24,0,.55-.04.91-.12.36-.08.63.04.79.37.32,0,.55.02.67.06.12.04.26.1.43.18.24-.16.59-.26,1.03-.31.44-.04.91-.04,1.4,0,.48.04.97.08,1.46.12.49.04.85.06,1.09.06.16.16.92,26.08-.09,26.04-1.01-.04-6.02-.06-7.08-.06v-.86c-.08,0-.12.04-.12.12-.08-.08-.12-.16-.12-.24l.24-.12v-2.39c0-.29-.24-21.01-.24-21.01h.24c0,.16.02.2.06.12.04-.08.06-.45.06-1.1h-.24v-.25h.24v-.24c.16,0,.26-.02.3-.06.04-.04.14-.06.3-.06-.08-.08-.12-.16-.12-.24-.32.08-.57.12-.73.12-.08.08-.12.21-.12.37v-.24c-.24-.08-.37-.16-.37-.24ZM528.24,134.29c.04,1.1.06,2.23.06,3.37-.57.08-1.09.12-1.58.12s-3.48-.08-3.64-.24c-.41.08-.71.12-.91.12h-1.52c.16,0,.28-.04.36-.12,0-3.27-.02-5.51-.06-6.74-.04-1.22-.06-18.13-.06-18.13-.08,0-.16-.04-.24-.12.08-.16.12-.37.12-.61s.04-.49.12-.73c-.32,0-.48-.04-.48-.12h.36c0-.57.02-1.18.06-1.84.04-.65-.1-1.23-.42-1.72h.24v-.73c0-.08.04-.2.12-.37.89-.08,5.86-.12,6.95-.12s.45,16.07.45,18.32v5.7c0,1.55.02,2.88.06,3.98Z"/>
    <path d="M385.53,133.38c-.24-2.04-.28-4.04-.12-6v-1.84c0-1.06-.02-2.35-.06-3.86-.04-1.51-.06-3.14-.06-4.9s-.02-3.37-.06-4.84c-.04-1.47-.06-3.19-.06-5.15,0-3.1-.06-6.21-.18-9.31-.12-3.1-.24-20.6-.12-23.59.12-2.98.1-5.9-.06-8.76h-.36c.08-.08.14-.12.18-.12s.1-.04.18-.12v-2.33c0-.74.04-1.47.12-2.21-.16-.41-.23-.74-.18-.98.04-.24.06-.57.06-.98-.24,0-.41-.04-.48-.12.16,0,.32-.04.48-.12v-8.33c-.16-.25-.32-.53-.48-.86-.32-.08-.59-.1-.79-.06-.2.04-.51.06-.91.06h-4.92c-1.17,0-7.91-.24-8.56.24v8.09c0,2.78.04,5.47.12,8.09.16,0,.28.04.36.12-.16,0-.28.04-.36.12.08,1.39.12,2.78.12,4.17v4.17c.16.17.24.29.24.37l-.24.12v3.49c0,1.19.04,2.35.12,3.49.08,0,.16.04.24.12.08.41.16.66.24.73-.16,0-.32.04-.48.12,0,2.04.02,4.04.06,6,.04,1.96.06,3.96.06,6l-.12.12c-.41-.98-.75-1.96-1.03-2.94-.28-.98-.59-1.96-.91-2.94h-.05l-.77-2.38c-.08-.27-.17-.58-.27-.93-.01,0-.02-.01-.04-.02l-.36-1.1s0,0,0,0l-.24-.73c-.02-.22-.07-.43-.16-.6-.03-.06-.07-.13-.1-.19l-3.48-10.68c-.33-1.03-.73-2.3-1.22-3.83h-.24v-.24c0,.08.08.12.24.12-.49-1.23-.91-2.51-1.28-3.86-.36-1.35-.79-2.63-1.27-3.86-.41-1.88-.93-3.65-1.58-5.33-.65-1.67-1.17-3.41-1.58-5.21-.41-.16-.77-.33-1.09-.49-1.62-.08-3.28-.14-4.98-.18-1.7-.04-3.36-.06-4.98-.06-.65,0-1.38-.02-2.19-.06-.81-.04-1.46.23-1.94.8-.16,2.37-.22,4.76-.18,7.17.04,2.41.61,70.07.73,71.86.12,1.8.14,3.6.06,5.39v11.27c0,1.47-.02,2.82-.06,4.04-.04,1.22-.06,1.96-.06,2.21v.12c0,.08.02.12.06.12s.06.04.06.12c.65.24,1.6.33,2.85.24,1.25-.08,2.29-.16,3.1-.24,1.13,0,2.28.02,3.46.06,1.17.04,2.33.18,3.46.43,1.38-.16,2.25-.23,2.61-.18.36.04.67.02.91-.06v-.24h.37c.16-.57.24-1.35.24-2.33s-.12-24.28-.12-28-.04-7.49-.12-11.33h-.49c0-.08.04-.12.12-.12h.37v-2.82l.12.12c.28.97.59,1.98.92,2.99,0,0,0,.02,0,.02l5.13,16.62s.01.06.02.09c0,0,0,0,.01,0l2.17,7.04c.4,1.43.81,2.88,1.21,4.35.16.08.32.21.48.37h-.24c0,.49.08.88.24,1.16.16.29.32.63.49,1.04,0,.65.14,1.29.43,1.9.28.61.55,1.21.79,1.78-.08.25-.06.66.06,1.23.12.57.3,1.16.55,1.78.24.61.5,1.18.79,1.72.28.53.55.88.79,1.04v.37c-.16,0-.24.04-.24.12,0,.16.08.41.24.73.32.08.63.12.91.12s10.99.08,12.2,0v-.24h.24c.08.08.08.21,0,.37h.24c.24-.33.36-.59.36-.8s.02-2.47.06-3.61c.04-1.14.08-2.33.12-3.55.04-1.23.06-2.33.06-3.31s-.08-1.55-.24-1.71c.4-1.88.48-3.84.24-5.88Z"/>
    <path d="M637.57,119.28c-.24-1.55-.28-3.02-.12-4.41-1.62-2.78-3.46-5.49-5.52-8.15-2.06-2.65-4.03-5.29-5.89-7.9-.08-.08-.14-.12-.18-.12-.04,0-.1-.04-.18-.12,0-.08.02-.14.06-.18.04-.04.06-.1.06-.18-.57-.65-1.11-1.37-1.64-2.14-.46-.67-.94-1.33-1.42-1.98-.25-.35-.53-.74-.83-1.16,0-.09-.02-.18-.05-.23-.04-.08-.26-.37-.67-.86h-.06c-.4-.56-.82-1.15-1.26-1.75,0,0-.01-.02-.02-.03-.08-.12-.16-.26-.24-.43,0,.03,0,.05,0,.08-1.38-1.93-2.87-4.01-4.13-5.78-.02-.29-.13-.47-.36-.55,0,.02,0,.03,0,.04-.17-.23-.33-.46-.48-.68v-.1h-.07c-.05-.07-.1-.14-.15-.21.06-.02.13-.03.22-.03-.16-.16-.3-.35-.43-.55-.1-.16-.23-.26-.41-.29-.2-.29-.39-.55-.55-.79-.08-.24-.18-.41-.32-.51-.03-.03-.07-.06-.1-.09-.19-.28-.32-.48-.38-.58-.1-.18-.17-.61-.2-1.23h.08v-1.35s-.07.03-.11.05c0-.13,0-.25,0-.39.01-.04.04-.09.11-.15-.03-.07-.07-.14-.1-.21,0-.17,0-.35.01-.53h.21c-.05-.27-.12-.53-.19-.78.02-.46.04-.94.06-1.42h0c.08-.41.12-.82.12-1.23v-1.14c.06-.99.13-1.96.19-2.83,0-.01,0-.03,0-.04.15-2.06.29-3.58.29-3.58h4.55c1.5,0,3.01.04,4.55.12.08.16.12.35.12.55s.04.43.12.67c0,.24-.02.69-.06,1.35-.04.66-.06,1.35-.06,2.08v2.08c0,.66.08,1.02.24,1.1,0,.24-.02.63-.06,1.16-.04.53-.08,1.1-.12,1.72-.04.61-.06,1.18-.06,1.72s.04.92.12,1.16c.32,0,.73.04,1.21.12.48.08,10.24.08,11.05,0,.81-.08,1.33-.2,1.58-.37.16-.24.3-.69.42-1.35.12-.65.2-1.37.24-2.14.04-.78.04-1.51,0-2.21-.04-.69-.14-1.16-.3-1.41.08-.08.16-.12.24-.12.08-2.53.12-5.02.12-7.47s.08-12.23,0-12.32c-1.13-1.15-2.94-1.57-3.46-1.65-.53-.08-1.07-.28-1.64-.61,0,0-28.37.2-29.26.86v.12c-.16,0-.42.08-.79.24-.36.16-.73.37-1.09.61-.36.24-.67.51-.91.8-.24.29-.28.51-.12.67,0,.08-.02.14-.06.18-.04.04-.18.06-.18.06-.16,0-.28-.04-.36-.12-.32.24-.55.55-.67.92-.12.37-.3.63-.55.8,0,0,.12,14.99.12,16.54,0,.84.01,1.68.04,2.54,0,.83,0,1.84-.01,2.98,0,0-.01,0-.02-.01-.08.17-.12.45-.12.86.04-.08.08-.16.13-.24,0,.35-.01.71-.02,1.09-.07-.02-.11-.05-.11-.11v.98h.09c-.01.45-.03.92-.05,1.39-.01-.02-.03-.03-.04-.04,0,.13.01.26.03.38-.01.36-.03.72-.05,1.09h-.11v.49s.05-.01.08-.02c0,.09,0,.18-.01.26-.02,0-.04,0-.07,0v1.23c-.15,2.44.85,2.45.85,2.45.1.2.21.36.34.5l.87,1.29v.17s.04-.05.06-.08l1.64,2.41.36.52c.16.31.36.67.61,1.07.27.44.54.75.81.97l.46.66c.09.36.29.74.62,1.12.44.53.79,1,1.03,1.41.89,1.31,1.82,2.59,2.79,3.86.97,1.27,1.9,2.55,2.79,3.86.4.66.81,1.27,1.21,1.84.4.57,3.28,4.78,4.01,5.76.73.98,5.22,7.64,5.71,7.72,0,0,.24,5.13.24,6.31s-.04,2.35-.12,3.49c.08,0,.12.04.12.12-.16,1.14-.22,2.41-.18,3.8.04,1.39.06,2.66.06,3.8h-2.12c-.69,0-1.36.04-2,.12h-.55c-.2,0-.99-.04-2.37-.12v.24c-.41-.16-.83-.26-1.28-.31-.44-.04-.87-.06-1.28-.06v-1.16c0-.37.24-5.02.24-6.37s-.2-2.59-.61-3.74c-1.78,0-8.48-.35-9.17-.31-.69.04-1.28.02-1.76-.06-.97-.08-2.91-.12-2.91-.12.16.41-.24,5.43-.24,6.25s-.28,8.62-.12,10.66c.16,2.04.24,3.92.24,5.64.08.65.2,1.25.36,1.78.16.53.37,1.12.61,1.78.65.33,1.21.66,1.7.98.48.33,1.09.49,1.82.49v-.24c.16.08.26.12.3.12s27.01.12,28.23.12c.08-.08.16-.12.24-.12s.2-.04.36-.12c1.86-.16,3.18-.82,3.95-1.96.77-1.14,1.4-2.53,1.88-4.17,0-.24.02-.47.06-.67.04-.2.06-.43.06-.68v-14.21c.08-1.31.12-2.37.12-3.18s-.02-1.57-.06-2.27c-.04-.69-.06-1.08-.06-1.16.24-1.39.24-2.86,0-4.41Z"/>
    <path d="M681.77,117.08s.03,0,.05,0c0-.1-.03-.21-.09-.33-.2-1.17-.8-1.18-.8-1.18l-.02-.03s.04-.03.06-.05c-.16-.31-.35-.55-.58-.71l-.28-.41c0-.08-.04-.15-.12-.23-.01,0-.02,0-.03.01l-.21-.31v-.31c-.05.05-.08.11-.1.16l-.28-.41c-.03-.12-.1-.24-.23-.37,0,0,0,.01,0,.02l-.77-1.13c-.1-.17-.2-.37-.32-.6h-.09l-.07-.11c-.17-.39-.43-.89-.8-1.49-.33-.54-.66-.9-.99-1.1l-.24-.35c-.06-.42-.27-.85-.64-1.3-.44-.53-.79-1-1.03-1.41-.89-1.31-1.82-2.59-2.79-3.86-.97-1.27-1.9-2.55-2.79-3.86-.41-.66-10.44-15.24-10.93-15.32,0,0-.24-5.13-.24-6.31s.04-2.35.12-3.49c-.08,0-.12-.04-.12-.12.16-1.14.22-2.41.18-3.8-.04-1.39-.06-2.66-.06-3.8h2.12c.69,0,1.36-.04,2-.12h.55c.2,0,.99.04,2.37.12v-.24c.41.16.83.26,1.27.31.45.04.87.06,1.28.06v1.16c0,.37-.08,2.02-.24,2.51v3.86c0,1.35.2,2.59.61,3.74h3.16c.32,0,.61.08.85.25.08-.08.12-.17.12-.25h-.24c0-.08.04-.16.12-.24.32.33.77.53,1.34.61.57.08,1.17.1,1.82.06.65-.04,1.32-.08,2-.12.69-.04,1.27-.02,1.76.06.97.08,1.52.1,1.64.06.12-.04.1-.06-.06-.06v-.25h.48v.37h.85c-.16-.41-.18-.82-.06-1.23.12-.41.59-13.64.43-15.68-.16-2.04-.24-3.92-.24-5.64-.08-.65-.2-1.25-.36-1.78-.16-.53-.36-1.12-.61-1.78-.65-.33-1.21-.66-1.7-.98-.49-.33-8.01-.71-8.99-.67-.97.04-1.74.06-2.31.06s-.97.02-1.21.06c-.24.04-.56.06-.97.06v-.12h-7.89c-1.62,0-3.22.02-4.8.06-1.58.04-2.97.06-4.19.06-.08.08-.16.12-.24.12s-.2.04-.36.12c-1.86.16-3.17.82-3.95,1.96-.77,1.14-1.4,2.53-1.88,4.17,0,.24-.02.47-.06.67-.04.2-.06.43-.06.68v14.21c-.08,1.31-.12,2.37-.12,3.18s.02,1.57.06,2.27c.04.69.06,1.08.06,1.16-.24,1.39-.24,2.86,0,4.41.24,1.55.28,3.02.12,4.41,1.62,2.78,3.46,5.49,5.52,8.15,2.06,2.65,4.03,5.29,5.89,7.9.08.08.14.12.18.12s.1.04.18.12c0,.08-.02.14-.06.18-.04.04-.06.1-.06.18.56.64,1.1,1.35,1.62,2.12-.01.06-.02.1-.02.1,0,0,.96,1.34,2.33,3.25,0,.01,0,.03.01.05.03.06.17.24.41.54,1.8,2.5,4.14,5.77,5.99,8.37.04.16.12.27.24.34.25.35.49.69.72,1.01-.04,0-.08.02-.13.02.16.16.3.35.43.55.07.12.17.2.29.25.76,1.08,1.29,1.85,1.43,2.09.1.17.16.58.2,1.15h-.03v1.35s.04-.02.07-.03c0,.14,0,.29,0,.44-.02.02-.04.05-.07.08.02.04.04.09.06.13,0,.2,0,.4-.01.61h-.17c.05.23.1.45.16.66-.02.59-.05,1.2-.08,1.83-.05.31-.08.63-.08.94v.52c-.2,3.33-.48,6.58-.52,7.08h-4.52c-1.5,0-3.01-.04-4.55-.12-.08-.16-.12-.35-.12-.55s-.04-.43-.12-.67c0-.24.02-.69.06-1.35.04-.66.06-1.35.06-2.08v-2.08c0-.66-.08-1.02-.24-1.1,0-.24.02-.63.06-1.16.04-.53.08-1.1.12-1.72.04-.61.06-1.18.06-1.72s-.04-.92-.12-1.16c-.32,0-8.62-.35-9.59-.31-.97.04-1.86.1-2.67.18-.81.08-1.34.2-1.58.37-.16.24-.3.69-.43,1.35-.12.65-.2,1.37-.24,2.14-.04.78-.04,1.51,0,2.21.04.69.14,1.16.3,1.41-.08.08-.16.12-.24.12-.08,2.53-.12,5.02-.12,7.47v7.6c.24.25.36.45.36.61h-.36v.49l.24.37h.67s.1.04.18.12c-.16.08-.34.12-.55.12s-.38.04-.55.12c-.16.9,2.12,2.59,2.25,2.63.12.04.26.14.43.31-.16.08-.77.69-.61.86.41.41.87.65,1.4.74.53.08,1.07.28,1.64.61l22.7-.12v.24c.41,0,5.67-.33,6.56-.98v-.12c.16,0,.43-.08.79-.24.36-.16.73-.37,1.09-.61.37-.24.67-.51.91-.8.24-.29.28-.51.12-.67,0-.08.02-.14.06-.18.04-.04.06-.14.06-.31-.24.16-.44.25-.61.25.32-.25.57-.45.73-.61v.61c.16,0,.28.04.36.12.32-.24.55-.55.67-.92.12-.37.3-.63.55-.8v-11.39c-.16,0-.28-.04-.36-.12.08-.08.14-.12.18-.12s.1-.08.18-.25c-.08-1.55-.12-3.11-.12-4.66,0-1.2-.03-2.43-.08-3.67,0-.57,0-1.2.02-1.87.02,0,.04.02.06.03.08-.17.12-.45.12-.86-.05.1-.11.2-.18.3,0-.37.01-.76.02-1.16.1.01.15.05.15.12v-.98h-.12c0,.08,0,.16-.02.23.01-.54.03-1.09.06-1.66.03.03.05.05.08.08,0-.2-.02-.38-.06-.56.01-.3.03-.6.04-.91h.14v-.49s-.08,0-.12.03c0-.09,0-.18.01-.27.04,0,.07,0,.11,0v-1.23s-.03.02-.04.03c.02-.34.01-.63,0-.88Z"/>
  </g>
  <path d="M231.39,25.29s-.27.32-.66.75c0,.01,0,.02.01.03-.09.09-.14.22-.14.39l-.24.08.05.16c-.05.02-.1.02-.13,0-.04-.02-.08-.02-.13,0,0,0,0,0-.01-.01-.49.53-1.11,1.18-1.82,1.91.07.06.09.11.06.15-.07.09-.22.18-.45.28l-.03-.02c-.61.61-1.23,1.33-2,1.97-2.83,2.34-5.9,5.54-9.95,8.3.03-.02.07-.05.12-.06.04.03.08.05.12.05.04,0,.1.03.19.1-.06.16-.09.27-.09.31,0,.04-.01.08-.05.12-.17-.14-.27-.29-.28-.45-.23.1-.42.23-.58.39-.1.1-.21.15-.33.18-2.35,1.64-4.68,2.86-7.54,4.8-.03.04-.05.08-.09.13l-.05-.04c-2.57,1.43-5.23,2.7-7.92,3.71-.12.04-.25.11-.61.25-.05.02.41.63.26.65l-.57-.27c-.78-.03-1.46-.06-2.02-.08-.55-.02-1.04-.04-1.5-.06-.22,0-.35,0-.35,0-.03,0-.05,0-.08,0-1.58,0-3.11,0-4.58,0v.52c-.08,0-.12-.18-.13-.52-.42,0-.83,0-1.24,0,0,.16.05.25.14.25-.09,0-.14.02-.14.07,0,.05-.04.07-.14.07v-.39c-6.04,0-11.02,0-14.49,0-.35.22-.64.27-.87.12.07-.06.2-.1.36-.12-3.15,0-4.92,0-4.92,0h-11.35v.12c-.17,0-.27-.04-.32-.12h-.43c-.1.03-.21.07-.34.12,0-.07-.02-.1-.04-.12h-.33c-.17.16-.32.42-.45.8v-.8h-.69v.26c-.07,0-.14-.09-.21-.26h-6.12c-.34.17-.54.28-.59.32-.04.05-.16.07-.34.07l.27-.27h-1.48l-7.62,6.75c.1.12.15.23.14.34-.11,0-.18-.02-.21-.05-.03-.03-.13-.02-.3.03-1.09,1.07-2.21,2.12-3.36,3.13-.88.78-1.77,1.61-2.66,2.46-.36.32-.76.67-1.18,1.03,0,0,0,0,0,0-.05.36-.11.65-.16.86v1.25c.02.06.03.11.04.17,0,2.37.04,4.72.12,7.05s.02,29.24.06,30.26c.04,1.02-.02,2.06-.18,3.13h.61c-.08.17-.12.29-.12.37-.16,0-.26.02-.3.06-.04.04-.1.06-.18.06v3.68c0,1.23.39,25.85.43,27.57.04,1.72.02,3.39-.06,5.02l.12,3.68.36-.24c0,.16.04.29.12.37-.16,0-.28.04-.36.12,0,.57-.08,1.02-.24,1.35.08.41.12,3.25.12,3.61v1.59c0,.69-.02,1.64-.06,2.82-.04,1.18-.06,2.84-.06,4.96h.24v.24c-.08,0-.16.04-.24.12v2.08h.24c-.16.33-.3.7-.43,1.1-.12.41-.1.82.06,1.23h.36v.12c-.08.08-.2.12-.36.12.08.04.17.07.27.09-.19.25-.37.51-.55.78v.16l.5-.56s4.12-4.95,4.42-5.29c.3-.34.67-.75,1.1-1.23l-.51-.45c.06-.07.26.05.6.35.11-.27.36-.6.72-1.01-.14-.12-.23-.15-.3-.08.06-.07.08-.12.04-.15-.04-.03-.02-.08.04-.15l.41.36c.24-.27.41-.46.5-.56s.29-.39.58-.86l.1.09c1.33-1.63,2.7-3.2,4.11-4.7,1.4-1.51,2.8-3.04,4.2-4.61.03-.58.21-.92.53-1,0,.13-.08.29-.26.5.3-.34.62-.67.97-.98.34-.31.66-.64.96-.98l-.1-.09h.19s9.04-10.14,9.04-10.14l-.2-.18c.12-.14.23-.19.33-.17.1.03.23-.19.4-.65.07.06.11.07.15.04.03-.03.08-.02.15.04.11-.27.03-.65-.25-1.14l.71.63c.05-.2.17-.4.36-.6l-.2-.18c.06-.07.22-.04.49.07.6-.81,1.24-1.59,1.91-2.34.67-.75,1.34-1.5,2.01-2.25.11-.39.16-.62.16-.69,0-.07.05-.16.18-.3l.02.39,6.03-6.75c.1-.52.47-1.08,1.12-1.66.64-.59,1.12-1.05,1.42-1.39l-.51-.45c.06-.07.26.05.6.35l7.4-8.29v-.19s.27-.31.27-.31c1.6-1.66,2.47-2.09,3.9-3.4l-1.76-3.23c-.14.08-.27.1-.38.07.03-.11.07-.18.1-.19.04-.02.05-.12.04-.3-.81-1.33-1.59-2.67-2.34-4.03-.57-1.05-1.19-2.11-1.83-3.18-.27-.5-.57-1.06-.88-1.65.02,0,.04,0,.07,0,0-.18-.11-.45-.31-.81,0,.11,0,.23,0,.35-.17-.33-.35-.67-.53-1.03.1-.04.16-.03.19.03l-.47-.86-.11.06c.04.07.07.14.1.21-.24-.48-.49-.98-.75-1.49.04.01.07.02.11.03-.1-.17-.21-.32-.32-.46-.13-.27-.27-.54-.4-.82l.12-.07-.23-.43s-.06.05-.09.08c-.04-.08-.08-.16-.12-.24.03-.02.06-.04.09-.05l-.59-1.08s-.01.03-.02.04c-.15-.31-.29-.56-.43-.77,0,0,0,0,0,0h.05s-.05-.09-.05-.09h7.43l.58-.71c-.1-.1-.15-.2-.15-.31.09,0,.15,0,.18.03.03.03.11,0,.24-.05.8-1.09,1.63-2.17,2.48-3.21.66-.81,1.31-1.65,1.97-2.52.32-.39.66-.8,1.04-1.25,0,.02.01.04.02.06.14-.06.32-.23.54-.5-.09.04-.18.07-.27.1.21-.25.43-.5.65-.76.05.07.06.13.03.17l.54-.66-.07-.07c-.05.06-.09.11-.14.15.3-.35.62-.72.95-1.09,0,.04,0,.07,0,.11.11-.13.19-.27.27-.41.17-.2.35-.39.53-.59l.09.09.27-.33s-.05-.04-.09-.05c.05-.06.1-.12.16-.17.02.02.04.04.07.06l.67-.83s-.03,0-.04,0c.2-.22.35-.41.48-.6,0,0,0,0,0,0l.8-.18c.21,0,2.33.1,6.51-1.09-.01-.03-.03-.05-.04-.08-.02-.09-.06-.17-.12-.23.12,0,.22,0,.31-.02.09-.02.22,0,.4.07-.16-.31-.11-.57.14-.79-.07.17-.02.36.14.54l.19-.17.17.19c-.28.12.04.07-.16.19,2.49-.64,4.76-1.85,7.9-3.33l-.17-.3c.18.02.43-.05.74-.22.32-.17.51-.34.58-.51.41.15.83-.06,1.27-.61.44-.55.78-.9,1.03-1.03-.01.14.06.28.19.44,1.36-.93,2.64-2.06,4.07-3.15,1.68-1.28,3-2.84,4.26-4.28-.08-.01-.16-.02-.26-.03,0-.08.02-.16.09-.25.09.07.17.1.25.09.07-.09.12-.13.16-.14.01,0,.03-.01.04-.02,4.85-5.53,6.47-10.11,8.27-14.78l-.09.04-.03-.08.16-.07s.02-.05.02-.07c-.06-.05-.1-.1-.11-.12-.01-.03-.06-.08-.16-.16,0-.12.09-.22.24-.28-.02-.05-.06-.07-.11-.04.09-.22.23-.4.41-.53,0-.12-.03-.29-.12-.49.1-.04.21-.1.33-.18.02-.01.03-.02.05-.03.08-.29.16-.59.23-.88.61-2.45.92-4.76,1.09-6.8.02-.26.04-.51.05-.76-.04,0-.07,0-.11-.02.07-.09.07-.23.02-.42.03-.04.08-.07.13-.08.15-2.85-.03-5.09-.16-6.4ZM148.84,120.84l-.07-18.49h16.23l-16.16,18.49ZM165.85,73.17c-.11-.03-.3-.05-.56-.05v1.92c.05,0,.09,0,.12.02.03.02.07.02.12.02-.11,0-.19.02-.24.05.05,1.69.08,3.37.08,5.04,0,.63,0,1.26.02,1.9h-16.57l-.05-9.84h16.48s-.03.03-.04.05v.52c0,.22.05.28.16.19.21,0,.37.02.48.05v.14Z"/>
  <path d="M127.13,151.48c0-2.37-.04-4.72-.12-7.05-.03-.98-.04-6.36-.04-12.31l-21.69-22.47h11.4c1.94-2.27,3.93-4.61,4.19-4.92.5-.59,1-1.15,1.51-1.68l1.05-1.28-.2-.03c.05-.06.07-.11.07-.16.05.05.11.07.16.07.17-.19.33-.32.48-.38.05-.09.32-.42.58-.72-.11-7.56-.33-21.58-.36-22.85-.04-1.72-.02-3.39.06-5.02l-.12-3.68-.36.24c0-.16-.04-.29-.12-.37.16,0,.28-.04.36-.12,0-.57.08-1.02.24-1.35-.08-.41.32-1.94.33-2.31v-2.12s-.03-.03-.04-.03c-.28-.23-.54-.49-.79-.77l-.23-.21-.16.18c-.03-.08-.06-.13-.09-.15.05-.05.07-.09.07-.12,0-.02.01-.03.02-.05l-2.48-2.23c-2.46-2.13-7.65-6.62-8.1-7.01-.59-.5-1.14-1.01-1.67-1.52l-1.27-1.06-.03.2c-.06-.05-.11-.07-.16-.07.05-.05.07-.11.07-.16-.19-.17-.32-.33-.38-.48-.03-.02-.1-.07-.19-.14h-3.29v.27c-.18,0-.3-.04-.34-.14-.04-.09-.29-.04-.75.14,0-.09-.02-.14-.07-.14-.04,0-.07-.04-.07-.14-.27.09-.5.41-.69.95v-.95c-.18.09-.41.14-.69.14v.27c-.09,0-.18-.14-.27-.41-1,.09-2.01.14-3.02.14h-3.02c-.36.18-.57.29-.62.34-.04.05-.16.07-.34.07l.27-.27h-9.05c-.46.27-1.12.36-1.99.27-.87-.09-1.53-.14-1.99-.14v.68c-.09,0-.14-.23-.14-.68h-11.11l-.14.14h-.41c-2.38-.09-3.25-.47-5.31-.66-.07,0-.16,0-.24-.01h-3.58c-.22,0-.52-.05-.9-.13-.61-.08-1.17-.22-1.61-.46h0c-1.74-.57-4.11-1.52-6.7-2.73-1.44-.39-2.57-.69-3.35-.91-.96-.26-2.02-1-3.2-2.22,0-.08.03-.17.05-.26-1.64-.95-3.23-1.96-4.67-3-1.4-1.02-2.76-2.06-4.06-3.1l-.11.1c-.29-.31-.6-.6-.93-.87-.34-.27-.75-.56-1.23-.89-.52.47-1.03.74-1.53.81.21-.19.38-.3.54-.34.15-.04.38-.3.7-.78-.1-.11-.17-.18-.21-.24-.05-.05-.36-.29-.94-.72.03-.02.07-.05.13-.08-3.47-3.04-6.18-5.82-7.58-7.51-.14,1.77-.44,6.39.64,12.09.03.02.05.04.09.06-.04-.16-.02-.31.06-.45.11-.03.25-.04.43-.02l.14-.12c.12.03.2.12.25.28.16-.04.34-.07.54-.1.2-.02.37-.05.54-.1.08.1.14.2.16.3l-.57.15c-.11-.2-.26-.28-.45-.23-.19.05-.38.04-.57-.03-.11.24-.3.43-.55.58.17.84.36,1.7.6,2.58.58,2.2,1.45,4.59,2.61,7.04.08-.06.15-.13.23-.19,0,.33.04.62.08.87.31.63.64,1.26.99,1.9.07-.01.13-.02.18,0,.07.03.15.03.25,0l.21.59c-.09,0-.2,0-.31-.03-.11-.35,1.27,1.74,3.98,5.83,0,0,0,0,0,0l.1.13s0,0,0,0c.16.02.3.11.44.25.14.14.26.28.35.41.14-.1.24-.14.32-.13l-.15-.2.14-.1c.13.18.21.33.23.45l-.34.25.59.81.2-.15.15.2s0,.1-.09.17l.3.4c.16.02.3-.01.44-.11l.1.13c-.11.08-.2.19-.3.28.14.15.27.29.41.44h.11c.2.19.4.31.6.34.2.04.44.07.71.1-.04.04-.04.08,0,.12l.24.23c-.11.28-.14.45-.08.5.06.06.17.2.33.44l-.04.05c1.56,1.4,3.62,3.27,5.61,4.26,10.87,5.41,15.2,5.89,17.36,6.34.4.09,1.49.16,3.03.21-.04-.12-.04-.28,0-.5l-.33-.05c.23-.02.56,0,1,.07.17-.37.37-.53.59-.5,0,.06,0,.11.02.17.02.06.02.14,0,.25l.58.09c.12.3.24.45.35.44.11,0,.32-.08.62-.2l.07-.41-.14-.19.5.08c.04.12.06.24.07.35,0,.12.06.24.15.36h.04s0-.46,0-.46c.32.16.65.24,1,.24v-.25c0,.05.01.08.04.08s.04.03.04.08v.08c.39.05.79.1,1.21.13.42.03.82-.01,1.21-.13.67,0,1.11-.01,1.34-.04.22-.03.39-.01.5.04,0-.17.03-.28.08-.33-.06-.06-.17-.08-.33-.08,0-.06.14-.11.42-.17,0-.11.05-.28.17-.5.11.06.19.11.25.17h-.25c-.06.39-.08.61-.08.67s-.06.14-.17.25c.17,0,.43.03.79.08.36.05.6.03.71-.08.11.05.21.08.29.08h.79c0-.11-.06-.22-.17-.33v-.67c.17-.11.28-.25.33-.42.05-.17.14-.36.25-.58.11.11.17.22.17.33h-.17v.33c-.06.05-.1.08-.13.08-.03,0-.07.03-.13.08,0,.28-.03.47-.08.59h.25c.05-.06.08-.14.08-.25.05,0,.08.01.08.04s.03.04.08.04c-.06.05-.08.11-.08.17s-.03.14-.08.25h-.33v.33c3.51-.11,6.99-.17,10.44-.17h9.47v4.45s-.03,0-.04,0v6.72c.1.32.29.61.59.87,0,.28-.02.49-.05.63-.03.11-.09.37-.18.78h-.36v.07h-15.09c-.06.13-.11.24-.19.38.16.09.26.09.31.01-.04.08-.05.13,0,.15.04.02.04.07,0,.15l-.42-.24-.63,1.14c-.05.13-.1.28-.17.45l-.06-.04-1.31,2.37c-.23.43-.47.86-.71,1.28l-4.09,7.42c.04.46-.06.76-.31.89-.03-.12.02-.31.15-.54-.07.13-.16.25-.23.37l-1.11,2.02h.01s-.02.01-.02.01l-2.17,3.93,3.05,3.43.27-.24s-.02.16-.18.33l.81.91c.03-.06.03-.1,0-.14.06.07.11.09.14.06.04-.03.08-.01.14.06l-.17.15,9.77,10.97c.26.12.41.28.44.49,0,0,0,0-.01,0l10.59,11.89.04-.04c.08.09.11.16.12.23l.45.5c.05.03.1.06.16.09-.02.02-.03.03-.04.05l.27.31c.22,0,.49-.06.82-.2l-.55.5.46.51.15-.14s.02.15-.03.27l4.13,4.64c.32.12.51.19.57.2.07,0,.16.07.28.21l-.39-.02,6.04,6.74c.51.16,1.02.59,1.53,1.3.51.7.92,1.23,1.23,1.57l.51-.45c.06.07-.08.25-.41.56l7.41,8.27h.19s.28.32.28.32c1.07,1.29,1.54,2.13,2.16,3.09l3.05,3.42c.44.39.89.78,1.29,1.15v-10.84s-.36-2.04.05-2.04c.08-.57.16-.96.24-1.16.08-.21.04-.59-.12-1.16Z"/>
</svg>