<?xml version="1.0" encoding="utf-8"?>
<!-- Generator: Adobe Illustrator 22.1.0, SVG Export Plug-In . SVG Version: 6.00 Build 0)  -->
<svg version="1.1" id="Layer_1" xmlns="http://www.w3.org/2000/svg" xmlns:xlink="http://www.w3.org/1999/xlink" x="0px" y="0px" viewBox="0 0 225 60" style="enable-background:new 0 0 225 60;" xml:space="preserve">
<style type="text/css">
	.st0{fill:#74777B;}
	.st1{fill:#0A5540;}
	.st2{fill:#FFFFFF;}
	.st3{fill:#73767A;}
</style>
<g>
	<path class="st0" d="M41.8,60H0l16-44.6C18.8,8,27.8,0,40.9,0l41.6,0L67,43.4C64,51.4,54.8,60,41.8,60z M3.3,57.6h38.5
		c12.7,0,20.7-9,23-15.1L79.2,2.4l-38.3,0c-12,0-20.2,7.2-22.7,13.9L3.3,57.6z"></path>
	<g>
		<path class="st1" d="M17.1,15.9l-15.4,43h40.2c12.8,0,21.4-8.7,24.1-15.9l15-41.8l-40,0C28.5,1.2,19.8,8.8,17.1,15.9z"></path>
	</g>
	<path class="st2" d="M57.3,33.8c0.1,1.3-0.2,2.8-1,4.6c-3.5,7.4-14.3,12-25.5,11.9c-6.2,0-12-1.4-15.3-3.9l7.9-7
		c2.6,1.9,6,3.1,10.6,3.1c3.6,0,7.9-0.9,9.1-3.5c1.1-2.4-1.1-3.8-4.1-5.3L57.3,33.8L57.3,33.8z M48.6,25.8c-3.8-1.7-7.2-3.1-5.9-5.7
		c1.1-2.4,4-3.2,7-3.2c4.3,0,8.1,1,12,2.9l3.9-8.3c-2.6-1.2-7-2.3-12.7-2.3c-11.5-0.1-20.6,5.5-23.4,11.6c-0.9,2-1.1,3.6-0.8,5
		L48.6,25.8L48.6,25.8z"></path>
	<path class="st3" d="M59.4,55.5c1.1,0,2,0.9,2,2c0,1.2-0.9,2.1-2,2.1c-1.1,0-2-0.9-2-2.1C57.4,56.4,58.3,55.5,59.4,55.5L59.4,55.5
		L59.4,55.5z M59.4,55.8c-0.9,0-1.6,0.8-1.6,1.7c0,1,0.7,1.7,1.6,1.7c0.9,0,1.6-0.8,1.6-1.7C61,56.6,60.3,55.8,59.4,55.8L59.4,55.8
		L59.4,55.8z M59,58.8h-0.4v-2.3c0.2,0,0.4-0.1,0.6-0.1c0.3,0,0.6,0.1,0.7,0.2c0.1,0.1,0.2,0.3,0.2,0.5c0,0.3-0.2,0.5-0.4,0.6v0
		c0.2,0,0.3,0.2,0.4,0.6c0.1,0.4,0.1,0.5,0.1,0.6h-0.4c-0.1-0.1-0.1-0.3-0.2-0.6c-0.1-0.3-0.2-0.4-0.5-0.4H59V58.8L59,58.8z
		 M59,57.5h0.3c0.3,0,0.5-0.1,0.5-0.4c0-0.2-0.1-0.4-0.5-0.4c-0.1,0-0.2,0-0.3,0V57.5L59,57.5z"></path>
	<path class="st3" d="M97.3,18.1l-3.4,9.4H83.6l3.4-9.4h-5.4l-3.3,9.3H21.1c-1.1,0-2,1.1-2,2.4c0,1.3,0.9,2.4,2,2.4h55.3L73,42h5.4
		l3.5-9.8h10.3L88.7,42h5.4l8.5-23.8H97.3"></path>
	<polyline class="st3" points="108,18.1 122.1,18.1 119.2,22.6 111.9,22.6 110.1,27.6 117.4,27.6 115.8,32 108.5,32 106.5,37.5 
		115.1,37.5 113.5,42 99.5,42 108,18.1 	"></polyline>
	<polyline class="st3" points="126.6,18.1 140.7,18.1 137.8,22.6 130.4,22.6 128.6,27.6 135.9,27.6 134.3,32 127,32 123.5,42 
		118.1,42 126.6,18.1 	"></polyline>
	<polyline class="st3" points="143.9,18.1 158.1,18.1 155.2,22.6 147.8,22.6 146,27.6 153.2,27.6 151.6,32 144.4,32 140.8,42 
		135.4,42 143.9,18.1 	"></polyline>
	<polyline class="st3" points="161.2,18.1 166.7,18.1 158.1,42 152.7,42 161.2,18.1 	"></polyline>
	<polyline class="st3" points="172,18.1 186,18.1 183.1,22.6 175.8,22.6 174,27.6 181.4,27.6 179.8,32 172.4,32 170.5,37.5 
		179,37.5 177.4,42 163.4,42 172,18.1 	"></polyline>
	<polygon class="st3" points="190.5,18.1 196,18.1 189,37.5 197.1,37.5 195.5,42 182,42 190.5,18.1 	"></polygon>
	<path class="st3" d="M206.8,18.1h8.5c8.2,0,11.4,4.5,8.8,11.7c-2.7,7.5-10,12.1-17.9,12.1h-7.9L206.8,18.1L206.8,18.1z M207.9,37.5
		c5.4,0,9-3.6,10.4-7.5c1.7-4.6-0.1-7.4-5.1-7.4h-2.5l-5.4,14.9H207.9L207.9,37.5z"></path>
	<g>
		<polygon class="st3" points="175.4,46.5 179.2,46.6 178.8,47.4 176.2,47.4 175.4,49.8 177.9,49.8 177.7,50.6 175.1,50.6 174,54 
			172.9,54 175.4,46.5 		"></polygon>
		<path class="st3" d="M180.1,48.7l1,0l-1.8,5.3l-1,0L180.1,48.7L180.1,48.7z M180.5,47c0.1-0.4,0.4-0.7,0.8-0.7
			c0.4,0,0.6,0.2,0.6,0.6c0,0.4-0.4,0.7-0.8,0.7C180.6,47.6,180.4,47.3,180.5,47L180.5,47z"></path>
		<path class="st3" d="M183,48.7l0.8,0l-0.3,1.1h0c0.6-0.7,1.4-1.2,2.2-1.2c0.8,0,1.3,0.4,1.1,1.3c0,0.2-0.1,0.5-0.3,1l-1.1,3.1
			l-1,0l1.1-3.1c0.1-0.4,0.2-0.7,0.2-0.8c0.1-0.5-0.2-0.7-0.6-0.7c-0.4,0-1,0.2-1.5,0.8c-0.3,0.3-0.6,0.8-0.8,1.5l-0.8,2.3l-1,0
			L183,48.7L183,48.7z"></path>
		<path class="st3" d="M187.5,52.8c0.1-0.6,0.4-1.1,0.8-1.4c0.6-0.4,1.4-0.6,2.3-0.6l0.8,0c0.1-0.2,0.1-0.4,0.1-0.6
			c0.1-0.5-0.2-0.8-0.9-0.8c-0.5,0-1.2,0.2-1.7,0.4l-0.1-0.8c0.6-0.3,1.4-0.4,2-0.4c0.9,0,1.9,0.3,1.7,1.6c0,0.4-0.2,0.9-0.3,1.3
			l-0.2,0.5c-0.2,0.6-0.3,1-0.4,1.4c0,0.2,0,0.5,0,0.7l-0.9,0.2c0-0.2-0.1-0.6-0.1-0.9c-0.5,0.5-1.2,1-2,0.9
			C187.9,54.2,187.4,53.6,187.5,52.8L187.5,52.8z M191.1,51.9l0.1-0.4l-0.4,0c-0.8,0-1.4,0.1-1.8,0.4c-0.3,0.2-0.4,0.5-0.5,0.8
			c-0.1,0.5,0.2,0.7,0.7,0.7C189.9,53.4,190.8,52.8,191.1,51.9L191.1,51.9z"></path>
		<path class="st3" d="M195,48.8l0.8,0l-0.3,1.1h0c0.6-0.7,1.4-1.2,2.2-1.2c0.8,0,1.3,0.4,1.1,1.3c0,0.2-0.1,0.5-0.3,1l-1.1,3.1
			l-1,0l1.1-3.1c0.1-0.4,0.2-0.7,0.2-0.8c0.1-0.5-0.2-0.7-0.6-0.7c-0.4,0-1,0.2-1.5,0.8c-0.3,0.3-0.6,0.8-0.8,1.5l-0.8,2.3l-1,0
			L195,48.8L195,48.8z"></path>
		<path class="st3" d="M199.9,52c0.2-1.9,1.7-3.3,3.6-3.3c0.5,0,1,0.1,1.4,0.3l-0.3,0.8c-0.4-0.2-0.7-0.3-1.2-0.3
			c-1.2,0-2.3,1-2.5,2.4c-0.1,0.9,0.3,1.5,1.3,1.5c0.6,0,1.1-0.2,1.5-0.4l0.2,0.7c-0.5,0.3-1.2,0.5-1.9,0.5
			C200.5,54.3,199.7,53.4,199.9,52L199.9,52z"></path>
		<path class="st3" d="M206.6,48.9l1,0l-1.8,5.3l-1,0L206.6,48.9L206.6,48.9z M207,47.2c0.1-0.4,0.4-0.7,0.8-0.7
			c0.4,0,0.6,0.2,0.6,0.6c0,0.4-0.4,0.7-0.8,0.7C207.2,47.8,207,47.5,207,47.2L207,47.2z"></path>
		<path class="st3" d="M207.8,52.9c0.1-0.6,0.4-1.1,0.8-1.4c0.6-0.4,1.4-0.6,2.3-0.6l0.8,0c0.1-0.2,0.1-0.4,0.1-0.6
			c0.1-0.5-0.2-0.8-0.9-0.8c-0.5,0-1.1,0.2-1.7,0.4l-0.1-0.8c0.6-0.3,1.4-0.4,2-0.4c0.9,0,1.9,0.3,1.7,1.6c0,0.4-0.2,0.9-0.3,1.3
			l-0.2,0.5c-0.2,0.6-0.3,1-0.4,1.4c0,0.2,0,0.5,0,0.7l-0.9,0.2c0-0.2-0.1-0.6-0.1-0.9c-0.5,0.5-1.2,1-2,0.9
			C208.3,54.3,207.7,53.7,207.8,52.9L207.8,52.9z M211.4,52l0.1-0.4l-0.4,0c-0.8,0-1.4,0.1-1.8,0.4c-0.3,0.2-0.4,0.5-0.5,0.8
			c-0.1,0.5,0.2,0.7,0.7,0.7C210.2,53.5,211.2,52.9,211.4,52L211.4,52z"></path>
		<path class="st3" d="M213.8,53.4c0-0.1,0.1-0.3,0.1-0.6l2.2-6.6l1,0l-2.2,6.5c-0.1,0.1-0.1,0.3-0.1,0.4c0,0.2,0.1,0.3,0.3,0.3
			c0.1,0,0.3,0,0.5-0.1l-0.1,0.8c-0.2,0.1-0.6,0.1-0.8,0.1C214.2,54.3,213.8,54,213.8,53.4L213.8,53.4z"></path>
	</g>
</g>
</svg>